solid OpenSCAD_Model
  facet normal -0.994522 -0.10453 0
    outer loop
      vertex 10.5 -4.25 9.4369e-16
      vertex 10.429 -3.57429 10
      vertex 10.429 -3.57429 7.93651e-16
    endloop
  endfacet
  facet normal -0.994522 -0.10453 0
    outer loop
      vertex 10.429 -3.57429 10
      vertex 10.5 -4.25 9.4369e-16
      vertex 10.5 -4.25 10
    endloop
  endfacet
  facet normal 0 -1 0
    outer loop
      vertex 6.91028 -1.0178 2.25998e-16
      vertex 7.58972 -1.0178 10
      vertex 6.91028 -1.0178 10
    endloop
  endfacet
  facet normal 0 -1 -0
    outer loop
      vertex 7.58972 -1.0178 10
      vertex 6.91028 -1.0178 2.25998e-16
      vertex 7.58972 -1.0178 2.25998e-16
    endloop
  endfacet
  facet normal -0.743145 -0.66913 0
    outer loop
      vertex 9.8793 -2.3397 5.19517e-16
      vertex 9.42467 -1.83478 10
      vertex 9.42467 -1.83478 4.07403e-16
    endloop
  endfacet
  facet normal -0.743145 -0.66913 0
    outer loop
      vertex 9.42467 -1.83478 10
      vertex 9.8793 -2.3397 5.19517e-16
      vertex 9.8793 -2.3397 10
    endloop
  endfacet
  facet normal 0.743145 -0.66913 0
    outer loop
      vertex 4.62069 -2.3397 10
      vertex 5.07533 -1.83478 4.07403e-16
      vertex 5.07533 -1.83478 10
    endloop
  endfacet
  facet normal 0.743145 -0.66913 0
    outer loop
      vertex 5.07533 -1.83478 4.07403e-16
      vertex 4.62069 -2.3397 10
      vertex 4.62069 -2.3397 5.19517e-16
    endloop
  endfacet
  facet normal 0.406737 -0.913545 0
    outer loop
      vertex 5.625 -1.43542 3.18727e-16
      vertex 6.24569 -1.15907 10
      vertex 5.625 -1.43542 10
    endloop
  endfacet
  facet normal 0.406737 -0.913545 0
    outer loop
      vertex 6.24569 -1.15907 10
      vertex 5.625 -1.43542 3.18727e-16
      vertex 6.24569 -1.15907 2.57364e-16
    endloop
  endfacet
  facet normal -0.866026 -0.5 0
    outer loop
      vertex 10.219 -2.92811 6.5017e-16
      vertex 9.8793 -2.3397 10
      vertex 9.8793 -2.3397 5.19517e-16
    endloop
  endfacet
  facet normal -0.866026 -0.5 0
    outer loop
      vertex 9.8793 -2.3397 10
      vertex 10.219 -2.92811 6.5017e-16
      vertex 10.219 -2.92811 10
    endloop
  endfacet
  facet normal -0.951056 -0.309017 0
    outer loop
      vertex 10.429 -3.57429 7.93651e-16
      vertex 10.219 -2.92811 10
      vertex 10.219 -2.92811 6.5017e-16
    endloop
  endfacet
  facet normal -0.951056 -0.309017 0
    outer loop
      vertex 10.219 -2.92811 10
      vertex 10.429 -3.57429 7.93651e-16
      vertex 10.429 -3.57429 10
    endloop
  endfacet
  facet normal -0.406736 -0.913546 0
    outer loop
      vertex 8.2543 -1.15907 10
      vertex 8.875 -1.43542 3.18727e-16
      vertex 8.875 -1.43542 10
    endloop
  endfacet
  facet normal -0.406736 -0.913546 0
    outer loop
      vertex 8.875 -1.43542 3.18727e-16
      vertex 8.2543 -1.15907 10
      vertex 8.2543 -1.15907 2.57364e-16
    endloop
  endfacet
  facet normal -0.207912 -0.978147 0
    outer loop
      vertex 7.58972 -1.0178 10
      vertex 8.2543 -1.15907 2.57364e-16
      vertex 8.2543 -1.15907 10
    endloop
  endfacet
  facet normal -0.207912 -0.978147 0
    outer loop
      vertex 8.2543 -1.15907 2.57364e-16
      vertex 7.58972 -1.0178 10
      vertex 7.58972 -1.0178 2.25998e-16
    endloop
  endfacet
  facet normal -0.587785 -0.809017 0
    outer loop
      vertex 8.875 -1.43542 10
      vertex 9.42467 -1.83478 4.07403e-16
      vertex 9.42467 -1.83478 10
    endloop
  endfacet
  facet normal -0.587785 -0.809017 0
    outer loop
      vertex 9.42467 -1.83478 4.07403e-16
      vertex 8.875 -1.43542 10
      vertex 8.875 -1.43542 3.18727e-16
    endloop
  endfacet
  facet normal 0.951056 -0.309017 0
    outer loop
      vertex 4.07102 -3.57429 10
      vertex 4.28098 -2.92811 6.5017e-16
      vertex 4.28098 -2.92811 10
    endloop
  endfacet
  facet normal 0.951056 -0.309017 0
    outer loop
      vertex 4.28098 -2.92811 6.5017e-16
      vertex 4.07102 -3.57429 10
      vertex 4.07102 -3.57429 7.93651e-16
    endloop
  endfacet
  facet normal -0 -2.22045e-16 -1
    outer loop
      vertex 4 -4.25 9.4369e-16
      vertex 0 -4.25 9.4369e-16
      vertex 4 -4.25 9.43689e-16
    endloop
  endfacet
  facet normal 0 -2.22045e-16 -1
    outer loop
      vertex 10.5 -4.25 9.4369e-16
      vertex 10.429 -3.57429 7.93651e-16
      vertex 10.5 -4.25 9.43689e-16
    endloop
  endfacet
  facet normal 0 -2.22045e-16 -1
    outer loop
      vertex 16.929 -3.57429 7.93651e-16
      vertex 21 -4.25 9.4369e-16
      vertex 17 -4.25 9.4369e-16
    endloop
  endfacet
  facet normal 0 -2.22045e-16 -1
    outer loop
      vertex 16.719 -2.92811 6.5017e-16
      vertex 21 -4.25 9.4369e-16
      vertex 16.929 -3.57429 7.93651e-16
    endloop
  endfacet
  facet normal 0 -2.22045e-16 -1
    outer loop
      vertex 21 -4.25 9.4369e-16
      vertex 16.719 -2.92811 6.5017e-16
      vertex 21 0 0
    endloop
  endfacet
  facet normal 0 -2.22045e-16 -1
    outer loop
      vertex 16.3793 -2.3397 5.19517e-16
      vertex 21 0 0
      vertex 16.719 -2.92811 6.5017e-16
    endloop
  endfacet
  facet normal 0 -2.22045e-16 -1
    outer loop
      vertex 15.9247 -1.83478 4.07403e-16
      vertex 21 0 0
      vertex 16.3793 -2.3397 5.19517e-16
    endloop
  endfacet
  facet normal 0 -2.22045e-16 -1
    outer loop
      vertex 15.375 -1.43542 3.18727e-16
      vertex 21 0 0
      vertex 15.9247 -1.83478 4.07403e-16
    endloop
  endfacet
  facet normal 0 -2.22045e-16 -1
    outer loop
      vertex 14.7543 -1.15907 2.57364e-16
      vertex 21 0 0
      vertex 15.375 -1.43542 3.18727e-16
    endloop
  endfacet
  facet normal 0 -2.22045e-16 -1
    outer loop
      vertex 14.0897 -1.0178 2.25998e-16
      vertex 21 0 0
      vertex 14.7543 -1.15907 2.57364e-16
    endloop
  endfacet
  facet normal 0 -2.22045e-16 -1
    outer loop
      vertex 13.4103 -1.0178 2.25998e-16
      vertex 21 0 0
      vertex 14.0897 -1.0178 2.25998e-16
    endloop
  endfacet
  facet normal 0 -2.22045e-16 -1
    outer loop
      vertex 10.429 -3.57429 7.93651e-16
      vertex 10.571 -3.57429 7.93651e-16
      vertex 10.5 -4.25 9.43689e-16
    endloop
  endfacet
  facet normal 0 -2.22045e-16 -1
    outer loop
      vertex 10.429 -3.57429 7.93651e-16
      vertex 10.781 -2.92811 6.5017e-16
      vertex 10.571 -3.57429 7.93651e-16
    endloop
  endfacet
  facet normal 0 -2.22045e-16 -1
    outer loop
      vertex 10.219 -2.92811 6.5017e-16
      vertex 10.781 -2.92811 6.5017e-16
      vertex 10.429 -3.57429 7.93651e-16
    endloop
  endfacet
  facet normal 0 -2.22045e-16 -1
    outer loop
      vertex 10.219 -2.92811 6.5017e-16
      vertex 11.1207 -2.3397 5.19517e-16
      vertex 10.781 -2.92811 6.5017e-16
    endloop
  endfacet
  facet normal 0 -2.22045e-16 -1
    outer loop
      vertex 9.8793 -2.3397 5.19517e-16
      vertex 11.1207 -2.3397 5.19517e-16
      vertex 10.219 -2.92811 6.5017e-16
    endloop
  endfacet
  facet normal -0 -2.22045e-16 -1
    outer loop
      vertex 11.1207 -2.3397 5.19517e-16
      vertex 9.8793 -2.3397 5.19517e-16
      vertex 11.5753 -1.83478 4.07403e-16
    endloop
  endfacet
  facet normal 0 -2.22045e-16 -1
    outer loop
      vertex 9.42467 -1.83478 4.07403e-16
      vertex 11.5753 -1.83478 4.07403e-16
      vertex 9.8793 -2.3397 5.19517e-16
    endloop
  endfacet
  facet normal -0 -2.22045e-16 -1
    outer loop
      vertex 11.5753 -1.83478 4.07403e-16
      vertex 9.42467 -1.83478 4.07403e-16
      vertex 12.125 -1.43542 3.18727e-16
    endloop
  endfacet
  facet normal 0 -2.22045e-16 -1
    outer loop
      vertex 8.875 -1.43542 3.18727e-16
      vertex 12.125 -1.43542 3.18727e-16
      vertex 9.42467 -1.83478 4.07403e-16
    endloop
  endfacet
  facet normal -0 -2.22045e-16 -1
    outer loop
      vertex 12.125 -1.43542 3.18727e-16
      vertex 8.875 -1.43542 3.18727e-16
      vertex 12.7457 -1.15907 2.57364e-16
    endloop
  endfacet
  facet normal 0 -2.22045e-16 -1
    outer loop
      vertex 8.2543 -1.15907 2.57364e-16
      vertex 12.7457 -1.15907 2.57364e-16
      vertex 8.875 -1.43542 3.18727e-16
    endloop
  endfacet
  facet normal -0 -2.22045e-16 -1
    outer loop
      vertex 12.7457 -1.15907 2.57364e-16
      vertex 8.2543 -1.15907 2.57364e-16
      vertex 13.4103 -1.0178 2.25998e-16
    endloop
  endfacet
  facet normal 0 -2.22045e-16 -1
    outer loop
      vertex 7.58972 -1.0178 2.25998e-16
      vertex 13.4103 -1.0178 2.25998e-16
      vertex 8.2543 -1.15907 2.57364e-16
    endloop
  endfacet
  facet normal -0 -2.22045e-16 -1
    outer loop
      vertex 13.4103 -1.0178 2.25998e-16
      vertex 7.58972 -1.0178 2.25998e-16
      vertex 21 0 0
    endloop
  endfacet
  facet normal 0 -2.22045e-16 -1
    outer loop
      vertex 0 0 0
      vertex 7.58972 -1.0178 2.25998e-16
      vertex 6.91028 -1.0178 2.25998e-16
    endloop
  endfacet
  facet normal 0 -2.22045e-16 -1
    outer loop
      vertex 0 -4.25 9.4369e-16
      vertex 4.07102 -3.57429 7.93651e-16
      vertex 4 -4.25 9.43689e-16
    endloop
  endfacet
  facet normal 0 -2.22045e-16 -1
    outer loop
      vertex 0 -4.25 9.4369e-16
      vertex 4.28098 -2.92811 6.5017e-16
      vertex 4.07102 -3.57429 7.93651e-16
    endloop
  endfacet
  facet normal 0 -2.22045e-16 -1
    outer loop
      vertex 0 0 0
      vertex 4.28098 -2.92811 6.5017e-16
      vertex 0 -4.25 9.4369e-16
    endloop
  endfacet
  facet normal 0 -2.22045e-16 -1
    outer loop
      vertex 4.28098 -2.92811 6.5017e-16
      vertex 0 0 0
      vertex 4.62069 -2.3397 5.19517e-16
    endloop
  endfacet
  facet normal 0 -2.22045e-16 -1
    outer loop
      vertex 4.62069 -2.3397 5.19517e-16
      vertex 0 0 0
      vertex 5.07533 -1.83478 4.07403e-16
    endloop
  endfacet
  facet normal 0 -2.22045e-16 -1
    outer loop
      vertex 7.58972 -1.0178 2.25998e-16
      vertex 0 0 0
      vertex 21 0 0
    endloop
  endfacet
  facet normal 0 -2.22045e-16 -1
    outer loop
      vertex 6.24569 -1.15907 2.57364e-16
      vertex 0 0 0
      vertex 6.91028 -1.0178 2.25998e-16
    endloop
  endfacet
  facet normal 0 -2.22045e-16 -1
    outer loop
      vertex 5.625 -1.43542 3.18727e-16
      vertex 0 0 0
      vertex 6.24569 -1.15907 2.57364e-16
    endloop
  endfacet
  facet normal 0 -2.22045e-16 -1
    outer loop
      vertex 5.07533 -1.83478 4.07403e-16
      vertex 0 0 0
      vertex 5.625 -1.43542 3.18727e-16
    endloop
  endfacet
  facet normal 0.866026 -0.5 0
    outer loop
      vertex 4.28098 -2.92811 10
      vertex 4.62069 -2.3397 5.19517e-16
      vertex 4.62069 -2.3397 10
    endloop
  endfacet
  facet normal 0.866026 -0.5 0
    outer loop
      vertex 4.62069 -2.3397 5.19517e-16
      vertex 4.28098 -2.92811 10
      vertex 4.28098 -2.92811 6.5017e-16
    endloop
  endfacet
  facet normal 0.994522 -0.104528 0
    outer loop
      vertex 4.06456 -3.63571 10
      vertex 4.07102 -3.57429 7.93651e-16
      vertex 4.07102 -3.57429 10
    endloop
  endfacet
  facet normal 0.994522 -0.104528 1.13279e-09
    outer loop
      vertex 4.07102 -3.57429 7.93651e-16
      vertex 4.06456 -3.63571 10
      vertex 4 -4.25 9.43689e-16
    endloop
  endfacet
  facet normal 0.587785 -0.809017 0
    outer loop
      vertex 5.07533 -1.83478 4.07403e-16
      vertex 5.625 -1.43542 10
      vertex 5.07533 -1.83478 10
    endloop
  endfacet
  facet normal 0.587785 -0.809017 0
    outer loop
      vertex 5.625 -1.43542 10
      vertex 5.07533 -1.83478 4.07403e-16
      vertex 5.625 -1.43542 3.18727e-16
    endloop
  endfacet
  facet normal 0.207912 -0.978147 0
    outer loop
      vertex 6.24569 -1.15907 2.57364e-16
      vertex 6.91028 -1.0178 10
      vertex 6.24569 -1.15907 10
    endloop
  endfacet
  facet normal 0.207912 -0.978147 0
    outer loop
      vertex 6.91028 -1.0178 10
      vertex 6.24569 -1.15907 2.57364e-16
      vertex 6.91028 -1.0178 2.25998e-16
    endloop
  endfacet
  facet normal 0.994522 -0.104528 -9.96858e-09
    outer loop
      vertex 4.06456 -3.63571 10
      vertex 4 -4.25 10
      vertex 4 -4.25 9.43689e-16
    endloop
  endfacet
  facet normal 1 0 0
    outer loop
      vertex 4 -4.25 10
      vertex 4 -4.25 9.4369e-16
      vertex 4 -4.25 9.43689e-16
    endloop
  endfacet
  facet normal -0.994522 -0.104531 0
    outer loop
      vertex 17 -4.25 9.4369e-16
      vertex 16.929 -3.57429 10
      vertex 16.929 -3.57429 7.93651e-16
    endloop
  endfacet
  facet normal -0.994522 -0.104531 0
    outer loop
      vertex 16.929 -3.57429 10
      vertex 17 -4.25 9.4369e-16
      vertex 17 -4.25 10
    endloop
  endfacet
  facet normal 0 -1 0
    outer loop
      vertex 13.4103 -1.0178 2.25998e-16
      vertex 14.0897 -1.0178 10
      vertex 13.4103 -1.0178 10
    endloop
  endfacet
  facet normal 0 -1 -0
    outer loop
      vertex 14.0897 -1.0178 10
      vertex 13.4103 -1.0178 2.25998e-16
      vertex 14.0897 -1.0178 2.25998e-16
    endloop
  endfacet
  facet normal -0.743145 -0.66913 0
    outer loop
      vertex 16.3793 -2.3397 5.19517e-16
      vertex 15.9247 -1.83478 10
      vertex 15.9247 -1.83478 4.07403e-16
    endloop
  endfacet
  facet normal -0.743145 -0.66913 0
    outer loop
      vertex 15.9247 -1.83478 10
      vertex 16.3793 -2.3397 5.19517e-16
      vertex 16.3793 -2.3397 10
    endloop
  endfacet
  facet normal 0.743145 -0.66913 0
    outer loop
      vertex 11.1207 -2.3397 10
      vertex 11.5753 -1.83478 4.07403e-16
      vertex 11.5753 -1.83478 10
    endloop
  endfacet
  facet normal 0.743145 -0.66913 0
    outer loop
      vertex 11.5753 -1.83478 4.07403e-16
      vertex 11.1207 -2.3397 10
      vertex 11.1207 -2.3397 5.19517e-16
    endloop
  endfacet
  facet normal 0.406737 -0.913545 0
    outer loop
      vertex 12.125 -1.43542 3.18727e-16
      vertex 12.7457 -1.15907 10
      vertex 12.125 -1.43542 10
    endloop
  endfacet
  facet normal 0.406737 -0.913545 0
    outer loop
      vertex 12.7457 -1.15907 10
      vertex 12.125 -1.43542 3.18727e-16
      vertex 12.7457 -1.15907 2.57364e-16
    endloop
  endfacet
  facet normal -0.866026 -0.499999 0
    outer loop
      vertex 16.719 -2.92811 6.5017e-16
      vertex 16.3793 -2.3397 10
      vertex 16.3793 -2.3397 5.19517e-16
    endloop
  endfacet
  facet normal -0.866026 -0.499999 0
    outer loop
      vertex 16.3793 -2.3397 10
      vertex 16.719 -2.92811 6.5017e-16
      vertex 16.719 -2.92811 10
    endloop
  endfacet
  facet normal -0.951056 -0.309017 0
    outer loop
      vertex 16.929 -3.57429 7.93651e-16
      vertex 16.719 -2.92811 10
      vertex 16.719 -2.92811 6.5017e-16
    endloop
  endfacet
  facet normal -0.951056 -0.309017 0
    outer loop
      vertex 16.719 -2.92811 10
      vertex 16.929 -3.57429 7.93651e-16
      vertex 16.929 -3.57429 10
    endloop
  endfacet
  facet normal -0.406736 -0.913546 0
    outer loop
      vertex 14.7543 -1.15907 10
      vertex 15.375 -1.43542 3.18727e-16
      vertex 15.375 -1.43542 10
    endloop
  endfacet
  facet normal -0.406736 -0.913546 0
    outer loop
      vertex 15.375 -1.43542 3.18727e-16
      vertex 14.7543 -1.15907 10
      vertex 14.7543 -1.15907 2.57364e-16
    endloop
  endfacet
  facet normal -0.207912 -0.978147 0
    outer loop
      vertex 14.0897 -1.0178 10
      vertex 14.7543 -1.15907 2.57364e-16
      vertex 14.7543 -1.15907 10
    endloop
  endfacet
  facet normal -0.207912 -0.978147 0
    outer loop
      vertex 14.7543 -1.15907 2.57364e-16
      vertex 14.0897 -1.0178 10
      vertex 14.0897 -1.0178 2.25998e-16
    endloop
  endfacet
  facet normal -0.587785 -0.809017 0
    outer loop
      vertex 15.375 -1.43542 10
      vertex 15.9247 -1.83478 4.07403e-16
      vertex 15.9247 -1.83478 10
    endloop
  endfacet
  facet normal -0.587785 -0.809017 0
    outer loop
      vertex 15.9247 -1.83478 4.07403e-16
      vertex 15.375 -1.43542 10
      vertex 15.375 -1.43542 3.18727e-16
    endloop
  endfacet
  facet normal 0.951056 -0.309017 0
    outer loop
      vertex 10.571 -3.57429 10
      vertex 10.781 -2.92811 6.5017e-16
      vertex 10.781 -2.92811 10
    endloop
  endfacet
  facet normal 0.951056 -0.309017 0
    outer loop
      vertex 10.781 -2.92811 6.5017e-16
      vertex 10.571 -3.57429 10
      vertex 10.571 -3.57429 7.93651e-16
    endloop
  endfacet
  facet normal 0.866026 -0.5 0
    outer loop
      vertex 10.781 -2.92811 10
      vertex 11.1207 -2.3397 5.19517e-16
      vertex 11.1207 -2.3397 10
    endloop
  endfacet
  facet normal 0.866026 -0.5 0
    outer loop
      vertex 11.1207 -2.3397 5.19517e-16
      vertex 10.781 -2.92811 10
      vertex 10.781 -2.92811 6.5017e-16
    endloop
  endfacet
  facet normal 0.994522 -0.104528 0
    outer loop
      vertex 10.5646 -3.63571 10
      vertex 10.571 -3.57429 7.93651e-16
      vertex 10.571 -3.57429 10
    endloop
  endfacet
  facet normal 0.994522 -0.104528 1.13279e-09
    outer loop
      vertex 10.571 -3.57429 7.93651e-16
      vertex 10.5646 -3.63571 10
      vertex 10.5 -4.25 9.43689e-16
    endloop
  endfacet
  facet normal 0.587785 -0.809017 0
    outer loop
      vertex 11.5753 -1.83478 4.07403e-16
      vertex 12.125 -1.43542 10
      vertex 11.5753 -1.83478 10
    endloop
  endfacet
  facet normal 0.587785 -0.809017 0
    outer loop
      vertex 12.125 -1.43542 10
      vertex 11.5753 -1.83478 4.07403e-16
      vertex 12.125 -1.43542 3.18727e-16
    endloop
  endfacet
  facet normal 0.207912 -0.978147 0
    outer loop
      vertex 12.7457 -1.15907 2.57364e-16
      vertex 13.4103 -1.0178 10
      vertex 12.7457 -1.15907 10
    endloop
  endfacet
  facet normal 0.207912 -0.978147 0
    outer loop
      vertex 13.4103 -1.0178 10
      vertex 12.7457 -1.15907 2.57364e-16
      vertex 13.4103 -1.0178 2.25998e-16
    endloop
  endfacet
  facet normal 0.994522 -0.104528 -9.96858e-09
    outer loop
      vertex 10.5646 -3.63571 10
      vertex 10.5 -4.25 10
      vertex 10.5 -4.25 9.43689e-16
    endloop
  endfacet
  facet normal 1 0 0
    outer loop
      vertex 10.5 -4.25 10
      vertex 10.5 -4.25 9.4369e-16
      vertex 10.5 -4.25 9.43689e-16
    endloop
  endfacet
  facet normal 1 -0 0
    outer loop
      vertex 2 -8.5 6
      vertex 2 -4.25 4
      vertex 2 -4.25 6
    endloop
  endfacet
  facet normal 1 0 0
    outer loop
      vertex 2 -4.25 4
      vertex 2 -8.5 6
      vertex 2 -8.5 4
    endloop
  endfacet
  facet normal 0 -1 0
    outer loop
      vertex 17 -4.25 10
      vertex 19 -4.25 6.125
      vertex 21 -4.25 10
    endloop
  endfacet
  facet normal 0 -1 0
    outer loop
      vertex 17 -4.25 10
      vertex 19 -4.25 3.875
      vertex 19 -4.25 6.125
    endloop
  endfacet
  facet normal 0 -1 0
    outer loop
      vertex 17 -4.25 9.4369e-16
      vertex 19 -4.25 3.875
      vertex 17 -4.25 10
    endloop
  endfacet
  facet normal 0 -1 0
    outer loop
      vertex 21 -4.25 9.4369e-16
      vertex 19 -4.25 3.875
      vertex 17 -4.25 9.4369e-16
    endloop
  endfacet
  facet normal 0 -1 0
    outer loop
      vertex 19 -4.25 3.875
      vertex 21 -4.25 9.4369e-16
      vertex 21 -4.25 3.875
    endloop
  endfacet
  facet normal 0 -1 -0
    outer loop
      vertex 21 -4.25 10
      vertex 19 -4.25 6.125
      vertex 21 -4.25 6.125
    endloop
  endfacet
  facet normal 0 -1 0
    outer loop
      vertex 0 -4.25 4
      vertex 0 -4.25 9.4369e-16
      vertex 2 -4.25 4
    endloop
  endfacet
  facet normal 0 -1 0
    outer loop
      vertex 2 -4.25 6
      vertex 0 -4.25 10
      vertex 0 -4.25 6
    endloop
  endfacet
  facet normal 0 -1 0
    outer loop
      vertex 0 -4.25 10
      vertex 2 -4.25 6
      vertex 4 -4.25 10
    endloop
  endfacet
  facet normal 0 -1 0
    outer loop
      vertex 2 -4.25 4
      vertex 4 -4.25 10
      vertex 2 -4.25 6
    endloop
  endfacet
  facet normal 0 -1 0
    outer loop
      vertex 2 -4.25 4
      vertex 4 -4.25 9.4369e-16
      vertex 4 -4.25 10
    endloop
  endfacet
  facet normal 0 -1 0
    outer loop
      vertex 4 -4.25 9.4369e-16
      vertex 2 -4.25 4
      vertex 0 -4.25 9.4369e-16
    endloop
  endfacet
  facet normal 1 -0 0
    outer loop
      vertex 19 -4.25 6.125
      vertex 19 8.60423e-16 3.875
      vertex 19 1.36002e-15 6.125
    endloop
  endfacet
  facet normal 1 0 0
    outer loop
      vertex 19 8.60423e-16 3.875
      vertex 19 -4.25 6.125
      vertex 19 -4.25 3.875
    endloop
  endfacet
  facet normal 0 1 -2.22045e-16
    outer loop
      vertex 21 0 0
      vertex 19 8.60423e-16 3.875
      vertex 21 8.60423e-16 3.875
    endloop
  endfacet
  facet normal 0 1 -2.22045e-16
    outer loop
      vertex 19 8.60423e-16 3.875
      vertex 21 0 0
      vertex 18.575 8.60423e-16 3.875
    endloop
  endfacet
  facet normal 0 1 -2.22045e-16
    outer loop
      vertex 18.575 8.60423e-16 3.875
      vertex 21 0 0
      vertex 17.425 8.60423e-16 3.875
    endloop
  endfacet
  facet normal 0 1 -2.22045e-16
    outer loop
      vertex 19 8.60423e-16 3.875
      vertex 18.575 1.36002e-15 6.125
      vertex 19 1.36002e-15 6.125
    endloop
  endfacet
  facet normal 0 1 -2.22045e-16
    outer loop
      vertex 18.575 1.36002e-15 6.125
      vertex 19 8.60423e-16 3.875
      vertex 18.575 8.60423e-16 3.875
    endloop
  endfacet
  facet normal 0 1 -2.22045e-16
    outer loop
      vertex 19 1.36002e-15 6.125
      vertex 21 2.22045e-15 10
      vertex 21 1.36002e-15 6.125
    endloop
  endfacet
  facet normal 0 1 -2.22045e-16
    outer loop
      vertex 18.575 1.36002e-15 6.125
      vertex 21 2.22045e-15 10
      vertex 19 1.36002e-15 6.125
    endloop
  endfacet
  facet normal 0 1 -2.22045e-16
    outer loop
      vertex 17.425 1.36002e-15 6.125
      vertex 21 2.22045e-15 10
      vertex 18.575 1.36002e-15 6.125
    endloop
  endfacet
  facet normal 0 1 -2.22045e-16
    outer loop
      vertex 21 2.22045e-15 10
      vertex 17.425 1.36002e-15 6.125
      vertex 0 2.22045e-15 10
    endloop
  endfacet
  facet normal 0 1 -2.22045e-16
    outer loop
      vertex 17.425 8.60423e-16 3.875
      vertex 0 2.22045e-15 10
      vertex 17.425 1.36002e-15 6.125
    endloop
  endfacet
  facet normal 0 1 -2.22045e-16
    outer loop
      vertex 0 0 0
      vertex 17.425 8.60423e-16 3.875
      vertex 21 0 0
    endloop
  endfacet
  facet normal 0 1 -2.22045e-16
    outer loop
      vertex 17.425 8.60423e-16 3.875
      vertex 0 0 0
      vertex 0 2.22045e-15 10
    endloop
  endfacet
  facet normal -0 0 1
    outer loop
      vertex 16.719 -2.92811 10
      vertex 21 -4.25 10
      vertex 21 2.22045e-15 10
    endloop
  endfacet
  facet normal 0 0 1
    outer loop
      vertex 21 -4.25 10
      vertex 16.929 -3.57429 10
      vertex 17 -4.25 10
    endloop
  endfacet
  facet normal 0 0 1
    outer loop
      vertex 21 -4.25 10
      vertex 16.719 -2.92811 10
      vertex 16.929 -3.57429 10
    endloop
  endfacet
  facet normal 0 0 1
    outer loop
      vertex 21 2.22045e-15 10
      vertex 16.3793 -2.3397 10
      vertex 16.719 -2.92811 10
    endloop
  endfacet
  facet normal 0 0 1
    outer loop
      vertex 21 2.22045e-15 10
      vertex 15.9247 -1.83478 10
      vertex 16.3793 -2.3397 10
    endloop
  endfacet
  facet normal 0 0 1
    outer loop
      vertex 21 2.22045e-15 10
      vertex 15.375 -1.43542 10
      vertex 15.9247 -1.83478 10
    endloop
  endfacet
  facet normal 0 0 1
    outer loop
      vertex 21 2.22045e-15 10
      vertex 14.7543 -1.15907 10
      vertex 15.375 -1.43542 10
    endloop
  endfacet
  facet normal 0 0 1
    outer loop
      vertex 21 2.22045e-15 10
      vertex 14.0897 -1.0178 10
      vertex 14.7543 -1.15907 10
    endloop
  endfacet
  facet normal 0 0 1
    outer loop
      vertex 21 2.22045e-15 10
      vertex 13.4103 -1.0178 10
      vertex 14.0897 -1.0178 10
    endloop
  endfacet
  facet normal 0 0 1
    outer loop
      vertex 10.5646 -3.63571 10
      vertex 10.429 -3.57429 10
      vertex 10.5 -4.25 10
    endloop
  endfacet
  facet normal 0 0 1
    outer loop
      vertex 10.571 -3.57429 10
      vertex 10.429 -3.57429 10
      vertex 10.5646 -3.63571 10
    endloop
  endfacet
  facet normal 0 0 1
    outer loop
      vertex 10.781 -2.92811 10
      vertex 10.429 -3.57429 10
      vertex 10.571 -3.57429 10
    endloop
  endfacet
  facet normal 0 0 1
    outer loop
      vertex 10.781 -2.92811 10
      vertex 10.219 -2.92811 10
      vertex 10.429 -3.57429 10
    endloop
  endfacet
  facet normal 0 0 1
    outer loop
      vertex 11.1207 -2.3397 10
      vertex 10.219 -2.92811 10
      vertex 10.781 -2.92811 10
    endloop
  endfacet
  facet normal 0 0 1
    outer loop
      vertex 9.8793 -2.3397 10
      vertex 11.1207 -2.3397 10
      vertex 11.5753 -1.83478 10
    endloop
  endfacet
  facet normal 0 0 1
    outer loop
      vertex 11.1207 -2.3397 10
      vertex 9.8793 -2.3397 10
      vertex 10.219 -2.92811 10
    endloop
  endfacet
  facet normal 0 0 1
    outer loop
      vertex 9.42467 -1.83478 10
      vertex 11.5753 -1.83478 10
      vertex 12.125 -1.43542 10
    endloop
  endfacet
  facet normal 0 0 1
    outer loop
      vertex 8.875 -1.43542 10
      vertex 12.125 -1.43542 10
      vertex 12.7457 -1.15907 10
    endloop
  endfacet
  facet normal 0 0 1
    outer loop
      vertex 11.5753 -1.83478 10
      vertex 9.42467 -1.83478 10
      vertex 9.8793 -2.3397 10
    endloop
  endfacet
  facet normal 0 0 1
    outer loop
      vertex 8.2543 -1.15907 10
      vertex 12.7457 -1.15907 10
      vertex 13.4103 -1.0178 10
    endloop
  endfacet
  facet normal 0 0 1
    outer loop
      vertex 12.125 -1.43542 10
      vertex 8.875 -1.43542 10
      vertex 9.42467 -1.83478 10
    endloop
  endfacet
  facet normal 0 0 1
    outer loop
      vertex 7.58972 -1.0178 10
      vertex 13.4103 -1.0178 10
      vertex 21 2.22045e-15 10
    endloop
  endfacet
  facet normal 0 0 1
    outer loop
      vertex 12.7457 -1.15907 10
      vertex 8.2543 -1.15907 10
      vertex 8.875 -1.43542 10
    endloop
  endfacet
  facet normal 0 0 1
    outer loop
      vertex 13.4103 -1.0178 10
      vertex 7.58972 -1.0178 10
      vertex 8.2543 -1.15907 10
    endloop
  endfacet
  facet normal -0 0 1
    outer loop
      vertex 0 2.22045e-15 10
      vertex 7.58972 -1.0178 10
      vertex 21 2.22045e-15 10
    endloop
  endfacet
  facet normal 0 0 1
    outer loop
      vertex 7.58972 -1.0178 10
      vertex 0 2.22045e-15 10
      vertex 6.91028 -1.0178 10
    endloop
  endfacet
  facet normal 0 0 1
    outer loop
      vertex 0 2.22045e-15 10
      vertex 6.24569 -1.15907 10
      vertex 6.91028 -1.0178 10
    endloop
  endfacet
  facet normal 0 0 1
    outer loop
      vertex 0 2.22045e-15 10
      vertex 5.625 -1.43542 10
      vertex 6.24569 -1.15907 10
    endloop
  endfacet
  facet normal 0 0 1
    outer loop
      vertex 0 2.22045e-15 10
      vertex 5.07533 -1.83478 10
      vertex 5.625 -1.43542 10
    endloop
  endfacet
  facet normal 0 0 1
    outer loop
      vertex 0 2.22045e-15 10
      vertex 4.62069 -2.3397 10
      vertex 5.07533 -1.83478 10
    endloop
  endfacet
  facet normal 0 0 1
    outer loop
      vertex 0 2.22045e-15 10
      vertex 4.28098 -2.92811 10
      vertex 4.62069 -2.3397 10
    endloop
  endfacet
  facet normal 0 0 1
    outer loop
      vertex 0 -4.25 10
      vertex 4.28098 -2.92811 10
      vertex 0 2.22045e-15 10
    endloop
  endfacet
  facet normal 0 0 1
    outer loop
      vertex 4.28098 -2.92811 10
      vertex 0 -4.25 10
      vertex 4.07102 -3.57429 10
    endloop
  endfacet
  facet normal 0 0 1
    outer loop
      vertex 4.07102 -3.57429 10
      vertex 0 -4.25 10
      vertex 4.06456 -3.63571 10
    endloop
  endfacet
  facet normal 0 0 1
    outer loop
      vertex 4.06456 -3.63571 10
      vertex 0 -4.25 10
      vertex 4 -4.25 10
    endloop
  endfacet
  facet normal 1 -0 0
    outer loop
      vertex 21 -4.25 3.875
      vertex 21 0 0
      vertex 21 8.60423e-16 3.875
    endloop
  endfacet
  facet normal 1 0 0
    outer loop
      vertex 21 0 0
      vertex 21 -4.25 3.875
      vertex 21 -4.25 9.4369e-16
    endloop
  endfacet
  facet normal 1 -0 0
    outer loop
      vertex 21 -4.25 10
      vertex 21 1.36002e-15 6.125
      vertex 21 2.22045e-15 10
    endloop
  endfacet
  facet normal 1 0 0
    outer loop
      vertex 21 1.36002e-15 6.125
      vertex 21 -4.25 10
      vertex 21 -4.25 6.125
    endloop
  endfacet
  facet normal 0 0 -1
    outer loop
      vertex 19 -4.25 6.125
      vertex 21 1.36002e-15 6.125
      vertex 21 -4.25 6.125
    endloop
  endfacet
  facet normal -0 0 -1
    outer loop
      vertex 21 1.36002e-15 6.125
      vertex 19 -4.25 6.125
      vertex 19 1.36002e-15 6.125
    endloop
  endfacet
  facet normal -0 0 1
    outer loop
      vertex 19 8.60423e-16 3.875
      vertex 21 -4.25 3.875
      vertex 21 8.60423e-16 3.875
    endloop
  endfacet
  facet normal 0 0 1
    outer loop
      vertex 21 -4.25 3.875
      vertex 19 8.60423e-16 3.875
      vertex 19 -4.25 3.875
    endloop
  endfacet
  facet normal -1 0 0
    outer loop
      vertex 0 -10.5 4
      vertex 0 -4.25 6
      vertex 0 -4.25 4
    endloop
  endfacet
  facet normal -1 -0 0
    outer loop
      vertex 0 -4.25 6
      vertex 0 -10.5 4
      vertex 0 -10.5 6
    endloop
  endfacet
  facet normal -1 0 0
    outer loop
      vertex 0 -4.25 4
      vertex 0 0 0
      vertex 0 -4.25 9.4369e-16
    endloop
  endfacet
  facet normal -1 0 0
    outer loop
      vertex 0 0 0
      vertex 0 -4.25 4
      vertex 0 2.22045e-15 10
    endloop
  endfacet
  facet normal -1 0 0
    outer loop
      vertex 0 -4.25 6
      vertex 0 2.22045e-15 10
      vertex 0 -4.25 4
    endloop
  endfacet
  facet normal -1 -0 0
    outer loop
      vertex 0 2.22045e-15 10
      vertex 0 -4.25 6
      vertex 0 -4.25 10
    endloop
  endfacet
  facet normal 0 1 -0
    outer loop
      vertex 3 -8.5 4
      vertex 2 -8.5 6
      vertex 3 -8.5 6
    endloop
  endfacet
  facet normal 0 1 0
    outer loop
      vertex 2 -8.5 6
      vertex 3 -8.5 4
      vertex 2 -8.5 4
    endloop
  endfacet
  facet normal 0 0 -1
    outer loop
      vertex 3 -8.5 4
      vertex 4 -8.5 4
      vertex 4 -9.5 4
    endloop
  endfacet
  facet normal 0 0 -1
    outer loop
      vertex 4 -8.5 4
      vertex 3 -8.5 4
      vertex 3.98907 -8.39604 4
    endloop
  endfacet
  facet normal -0 0 -1
    outer loop
      vertex 3.98907 -8.39604 4
      vertex 3 -8.5 4
      vertex 3.95677 -8.29663 4
    endloop
  endfacet
  facet normal -0 0 -1
    outer loop
      vertex 3.95677 -8.29663 4
      vertex 3 -8.5 4
      vertex 3.90451 -8.20611 4
    endloop
  endfacet
  facet normal -0 0 -1
    outer loop
      vertex 3.90451 -8.20611 4
      vertex 3 -8.5 4
      vertex 3.83457 -8.12843 4
    endloop
  endfacet
  facet normal -0 0 -1
    outer loop
      vertex 3.83457 -8.12843 4
      vertex 3 -8.5 4
      vertex 3.75 -8.06699 4
    endloop
  endfacet
  facet normal -0 0 -1
    outer loop
      vertex 3.75 -8.06699 4
      vertex 3 -8.5 4
      vertex 3.65451 -8.02447 4
    endloop
  endfacet
  facet normal -0 0 -1
    outer loop
      vertex 3.65451 -8.02447 4
      vertex 3 -8.5 4
      vertex 3.55226 -8.00274 4
    endloop
  endfacet
  facet normal -0 0 -1
    outer loop
      vertex 3.55226 -8.00274 4
      vertex 3 -8.5 4
      vertex 3.44773 -8.00274 4
    endloop
  endfacet
  facet normal 0 0 -1
    outer loop
      vertex 3.44773 -8.00274 4
      vertex 3 -8.5 4
      vertex 3.34549 -8.02447 4
    endloop
  endfacet
  facet normal 0 0 -1
    outer loop
      vertex 3.34549 -8.02447 4
      vertex 3 -8.5 4
      vertex 3.25 -8.06699 4
    endloop
  endfacet
  facet normal 0 0 -1
    outer loop
      vertex 3.25 -8.06699 4
      vertex 3 -8.5 4
      vertex 3.16543 -8.12843 4
    endloop
  endfacet
  facet normal 0 0 -1
    outer loop
      vertex 3.16543 -8.12843 4
      vertex 3 -8.5 4
      vertex 3.09549 -8.20611 4
    endloop
  endfacet
  facet normal 0 0 -1
    outer loop
      vertex 3.09549 -8.20611 4
      vertex 3 -8.5 4
      vertex 3.04323 -8.29663 4
    endloop
  endfacet
  facet normal 0 0 -1
    outer loop
      vertex 3.04323 -8.29663 4
      vertex 3 -8.5 4
      vertex 3.01093 -8.39604 4
    endloop
  endfacet
  facet normal 0 0 -1
    outer loop
      vertex 4 -9.5 4
      vertex 2 -8.5 4
      vertex 3 -8.5 4
    endloop
  endfacet
  facet normal 0 0 -1
    outer loop
      vertex 1 -10.5 4
      vertex 2 -8.5 4
      vertex 4 -9.5 4
    endloop
  endfacet
  facet normal 0 0 -1
    outer loop
      vertex 0 -10.5 4
      vertex 2 -8.5 4
      vertex 1 -10.5 4
    endloop
  endfacet
  facet normal -0 0 -1
    outer loop
      vertex 2 -8.5 4
      vertex 0 -10.5 4
      vertex 0 -4.25 4
    endloop
  endfacet
  facet normal 0 0 -1
    outer loop
      vertex 2 -8.5 4
      vertex 0 -4.25 4
      vertex 2 -4.25 4
    endloop
  endfacet
  facet normal -0 0 1
    outer loop
      vertex 0 -4.25 6
      vertex 2 -8.5 6
      vertex 2 -4.25 6
    endloop
  endfacet
  facet normal 0 0 1
    outer loop
      vertex 0 -10.5 6
      vertex 2 -8.5 6
      vertex 0 -4.25 6
    endloop
  endfacet
  facet normal 0 0 1
    outer loop
      vertex 2 -8.5 6
      vertex 0 -10.5 6
      vertex 1 -10.5 6
    endloop
  endfacet
  facet normal 0 0 1
    outer loop
      vertex 3 -8.5 6
      vertex 4 -8.5 6
      vertex 3.98907 -8.39604 6
    endloop
  endfacet
  facet normal 0 0 1
    outer loop
      vertex 3 -8.5 6
      vertex 3.98907 -8.39604 6
      vertex 3.95677 -8.29663 6
    endloop
  endfacet
  facet normal 0 0 1
    outer loop
      vertex 3 -8.5 6
      vertex 3.95677 -8.29663 6
      vertex 3.90451 -8.20611 6
    endloop
  endfacet
  facet normal 0 0 1
    outer loop
      vertex 3 -8.5 6
      vertex 3.90451 -8.20611 6
      vertex 3.83457 -8.12843 6
    endloop
  endfacet
  facet normal 0 0 1
    outer loop
      vertex 3 -8.5 6
      vertex 3.83457 -8.12843 6
      vertex 3.75 -8.06699 6
    endloop
  endfacet
  facet normal 0 0 1
    outer loop
      vertex 3 -8.5 6
      vertex 3.75 -8.06699 6
      vertex 3.65451 -8.02447 6
    endloop
  endfacet
  facet normal 0 0 1
    outer loop
      vertex 3 -8.5 6
      vertex 3.65451 -8.02447 6
      vertex 3.55226 -8.00274 6
    endloop
  endfacet
  facet normal 0 0 1
    outer loop
      vertex 3 -8.5 6
      vertex 3.55226 -8.00274 6
      vertex 3.44773 -8.00274 6
    endloop
  endfacet
  facet normal 0 0 1
    outer loop
      vertex 3 -8.5 6
      vertex 3.44773 -8.00274 6
      vertex 3.34549 -8.02447 6
    endloop
  endfacet
  facet normal 0 0 1
    outer loop
      vertex 3 -8.5 6
      vertex 3.34549 -8.02447 6
      vertex 3.25 -8.06699 6
    endloop
  endfacet
  facet normal 0 0 1
    outer loop
      vertex 3 -8.5 6
      vertex 3.25 -8.06699 6
      vertex 3.16543 -8.12843 6
    endloop
  endfacet
  facet normal 0 0 1
    outer loop
      vertex 3 -8.5 6
      vertex 3.16543 -8.12843 6
      vertex 3.09549 -8.20611 6
    endloop
  endfacet
  facet normal 0 0 1
    outer loop
      vertex 3 -8.5 6
      vertex 3.09549 -8.20611 6
      vertex 3.04323 -8.29663 6
    endloop
  endfacet
  facet normal 0 0 1
    outer loop
      vertex 3 -8.5 6
      vertex 3.04323 -8.29663 6
      vertex 3.01093 -8.39604 6
    endloop
  endfacet
  facet normal 0 0 1
    outer loop
      vertex 4 -8.5 6
      vertex 3 -8.5 6
      vertex 4 -9.5 6
    endloop
  endfacet
  facet normal -0 0 1
    outer loop
      vertex 2 -8.5 6
      vertex 4 -9.5 6
      vertex 3 -8.5 6
    endloop
  endfacet
  facet normal 0 0 1
    outer loop
      vertex 4 -9.5 6
      vertex 2 -8.5 6
      vertex 1 -10.5 6
    endloop
  endfacet
  facet normal 0 -1 0
    outer loop
      vertex 0 -10.5 4
      vertex 1 -10.5 6
      vertex 0 -10.5 6
    endloop
  endfacet
  facet normal 0 -1 -0
    outer loop
      vertex 1 -10.5 6
      vertex 0 -10.5 4
      vertex 1 -10.5 4
    endloop
  endfacet
  facet normal 0.316228 -0.948683 0
    outer loop
      vertex 1 -10.5 4
      vertex 4 -9.5 6
      vertex 1 -10.5 6
    endloop
  endfacet
  facet normal 0.316228 -0.948683 0
    outer loop
      vertex 4 -9.5 6
      vertex 1 -10.5 4
      vertex 4 -9.5 4
    endloop
  endfacet
  facet normal 1 -0 0
    outer loop
      vertex 4 -9.5 6
      vertex 4 -8.5 4
      vertex 4 -8.5 6
    endloop
  endfacet
  facet normal 1 0 0
    outer loop
      vertex 4 -8.5 4
      vertex 4 -9.5 6
      vertex 4 -9.5 4
    endloop
  endfacet
  facet normal 0.951055 0.309023 0
    outer loop
      vertex 3.98907 -8.39604 6
      vertex 3.95677 -8.29663 4
      vertex 3.95677 -8.29663 6
    endloop
  endfacet
  facet normal 0.951055 0.309023 0
    outer loop
      vertex 3.95677 -8.29663 4
      vertex 3.98907 -8.39604 6
      vertex 3.98907 -8.39604 4
    endloop
  endfacet
  facet normal 0.994522 0.104529 0
    outer loop
      vertex 4 -8.5 6
      vertex 3.98907 -8.39604 4
      vertex 3.98907 -8.39604 6
    endloop
  endfacet
  facet normal 0.994522 0.104529 0
    outer loop
      vertex 3.98907 -8.39604 4
      vertex 4 -8.5 6
      vertex 4 -8.5 4
    endloop
  endfacet
  facet normal -0.951055 0.309023 0
    outer loop
      vertex 3.01093 -8.39604 4
      vertex 3.04323 -8.29663 6
      vertex 3.04323 -8.29663 4
    endloop
  endfacet
  facet normal -0.951055 0.309023 0
    outer loop
      vertex 3.04323 -8.29663 6
      vertex 3.01093 -8.39604 4
      vertex 3.01093 -8.39604 6
    endloop
  endfacet
  facet normal 0.406735 0.913546 -0
    outer loop
      vertex 3.75 -8.06699 4
      vertex 3.65451 -8.02447 6
      vertex 3.75 -8.06699 6
    endloop
  endfacet
  facet normal 0.406735 0.913546 0
    outer loop
      vertex 3.65451 -8.02447 6
      vertex 3.75 -8.06699 4
      vertex 3.65451 -8.02447 4
    endloop
  endfacet
  facet normal 0.587787 0.809016 -0
    outer loop
      vertex 3.83457 -8.12843 4
      vertex 3.75 -8.06699 6
      vertex 3.83457 -8.12843 6
    endloop
  endfacet
  facet normal 0.587787 0.809016 0
    outer loop
      vertex 3.75 -8.06699 6
      vertex 3.83457 -8.12843 4
      vertex 3.75 -8.06699 4
    endloop
  endfacet
  facet normal -0.994523 0.10452 0
    outer loop
      vertex 3 -8.5 4
      vertex 3.01093 -8.39604 6
      vertex 3.01093 -8.39604 4
    endloop
  endfacet
  facet normal -0.994523 0.10452 0
    outer loop
      vertex 3.01093 -8.39604 6
      vertex 3 -8.5 4
      vertex 3 -8.5 6
    endloop
  endfacet
  facet normal 0.743148 0.669128 0
    outer loop
      vertex 3.90451 -8.20611 6
      vertex 3.83457 -8.12843 4
      vertex 3.83457 -8.12843 6
    endloop
  endfacet
  facet normal 0.743148 0.669128 0
    outer loop
      vertex 3.83457 -8.12843 4
      vertex 3.90451 -8.20611 6
      vertex 3.90451 -8.20611 4
    endloop
  endfacet
  facet normal -0.587783 0.809019 0
    outer loop
      vertex 3.25 -8.06699 4
      vertex 3.16543 -8.12843 6
      vertex 3.25 -8.06699 6
    endloop
  endfacet
  facet normal -0.587783 0.809019 0
    outer loop
      vertex 3.16543 -8.12843 6
      vertex 3.25 -8.06699 4
      vertex 3.16543 -8.12843 4
    endloop
  endfacet
  facet normal 0.20791 0.978148 -0
    outer loop
      vertex 3.65451 -8.02447 4
      vertex 3.55226 -8.00274 6
      vertex 3.65451 -8.02447 6
    endloop
  endfacet
  facet normal 0.20791 0.978148 0
    outer loop
      vertex 3.55226 -8.00274 6
      vertex 3.65451 -8.02447 4
      vertex 3.55226 -8.00274 4
    endloop
  endfacet
  facet normal -0.866024 0.500002 0
    outer loop
      vertex 3.04323 -8.29663 4
      vertex 3.09549 -8.20611 6
      vertex 3.09549 -8.20611 4
    endloop
  endfacet
  facet normal -0.866024 0.500002 0
    outer loop
      vertex 3.09549 -8.20611 6
      vertex 3.04323 -8.29663 4
      vertex 3.04323 -8.29663 6
    endloop
  endfacet
  facet normal -0.743148 0.669128 0
    outer loop
      vertex 3.09549 -8.20611 4
      vertex 3.16543 -8.12843 6
      vertex 3.16543 -8.12843 4
    endloop
  endfacet
  facet normal -0.743148 0.669128 0
    outer loop
      vertex 3.16543 -8.12843 6
      vertex 3.09549 -8.20611 4
      vertex 3.09549 -8.20611 6
    endloop
  endfacet
  facet normal 0.866024 0.500002 0
    outer loop
      vertex 3.95677 -8.29663 6
      vertex 3.90451 -8.20611 4
      vertex 3.90451 -8.20611 6
    endloop
  endfacet
  facet normal 0.866024 0.500002 0
    outer loop
      vertex 3.90451 -8.20611 4
      vertex 3.95677 -8.29663 6
      vertex 3.95677 -8.29663 4
    endloop
  endfacet
  facet normal -0.406739 0.913545 0
    outer loop
      vertex 3.34549 -8.02447 4
      vertex 3.25 -8.06699 6
      vertex 3.34549 -8.02447 6
    endloop
  endfacet
  facet normal -0.406739 0.913545 0
    outer loop
      vertex 3.25 -8.06699 6
      vertex 3.34549 -8.02447 4
      vertex 3.25 -8.06699 4
    endloop
  endfacet
  facet normal -0.20791 0.978148 0
    outer loop
      vertex 3.44773 -8.00274 4
      vertex 3.34549 -8.02447 6
      vertex 3.44773 -8.00274 6
    endloop
  endfacet
  facet normal -0.20791 0.978148 0
    outer loop
      vertex 3.34549 -8.02447 6
      vertex 3.44773 -8.00274 4
      vertex 3.34549 -8.02447 4
    endloop
  endfacet
  facet normal 0 1 -0
    outer loop
      vertex 3.55226 -8.00274 4
      vertex 3.44773 -8.00274 6
      vertex 3.55226 -8.00274 6
    endloop
  endfacet
  facet normal 0 1 0
    outer loop
      vertex 3.44773 -8.00274 6
      vertex 3.55226 -8.00274 4
      vertex 3.44773 -8.00274 4
    endloop
  endfacet
  facet normal 0 1 -0
    outer loop
      vertex 18.0601 -0.57185 3.875
      vertex 17.9399 -0.57185 6.125
      vertex 18.0601 -0.57185 6.125
    endloop
  endfacet
  facet normal 0 1 0
    outer loop
      vertex 17.9399 -0.57185 6.125
      vertex 18.0601 -0.57185 3.875
      vertex 17.9399 -0.57185 3.875
    endloop
  endfacet
  facet normal -0.866024 0.500003 0
    outer loop
      vertex 18.4652 -0.337976 3.875
      vertex 18.5253 -0.233873 6.125
      vertex 18.5253 -0.233873 3.875
    endloop
  endfacet
  facet normal -0.866024 0.500003 0
    outer loop
      vertex 18.5253 -0.233873 6.125
      vertex 18.4652 -0.337976 3.875
      vertex 18.4652 -0.337976 6.125
    endloop
  endfacet
  facet normal 0 0 -1
    outer loop
      vertex 18.5253 -0.233873 6.125
      vertex 18.575 1.36002e-15 6.125
      vertex 18.5624 -0.119549 6.125
    endloop
  endfacet
  facet normal 0 0 -1
    outer loop
      vertex 18.4652 -0.337976 6.125
      vertex 18.575 1.36002e-15 6.125
      vertex 18.5253 -0.233873 6.125
    endloop
  endfacet
  facet normal 0 0 -1
    outer loop
      vertex 18.3848 -0.427308 6.125
      vertex 18.575 1.36002e-15 6.125
      vertex 18.4652 -0.337976 6.125
    endloop
  endfacet
  facet normal 0 0 -1
    outer loop
      vertex 18.2875 -0.497964 6.125
      vertex 18.575 1.36002e-15 6.125
      vertex 18.3848 -0.427308 6.125
    endloop
  endfacet
  facet normal 0 0 -1
    outer loop
      vertex 18.1777 -0.546857 6.125
      vertex 18.575 1.36002e-15 6.125
      vertex 18.2875 -0.497964 6.125
    endloop
  endfacet
  facet normal 0 0 -1
    outer loop
      vertex 18.0601 -0.57185 6.125
      vertex 18.575 1.36002e-15 6.125
      vertex 18.1777 -0.546857 6.125
    endloop
  endfacet
  facet normal 0 0 -1
    outer loop
      vertex 17.9399 -0.57185 6.125
      vertex 18.575 1.36002e-15 6.125
      vertex 18.0601 -0.57185 6.125
    endloop
  endfacet
  facet normal 0 0 -1
    outer loop
      vertex 17.8223 -0.546857 6.125
      vertex 18.575 1.36002e-15 6.125
      vertex 17.9399 -0.57185 6.125
    endloop
  endfacet
  facet normal 0 0 -1
    outer loop
      vertex 17.7125 -0.497964 6.125
      vertex 18.575 1.36002e-15 6.125
      vertex 17.8223 -0.546857 6.125
    endloop
  endfacet
  facet normal 0 0 -1
    outer loop
      vertex 17.6152 -0.427308 6.125
      vertex 18.575 1.36002e-15 6.125
      vertex 17.7125 -0.497964 6.125
    endloop
  endfacet
  facet normal 0 0 -1
    outer loop
      vertex 17.5348 -0.337976 6.125
      vertex 18.575 1.36002e-15 6.125
      vertex 17.6152 -0.427308 6.125
    endloop
  endfacet
  facet normal 0 0 -1
    outer loop
      vertex 17.4747 -0.233873 6.125
      vertex 18.575 1.36002e-15 6.125
      vertex 17.5348 -0.337976 6.125
    endloop
  endfacet
  facet normal 0 0 -1
    outer loop
      vertex 17.4376 -0.119549 6.125
      vertex 18.575 1.36002e-15 6.125
      vertex 17.4747 -0.233873 6.125
    endloop
  endfacet
  facet normal -0 0 -1
    outer loop
      vertex 18.575 1.36002e-15 6.125
      vertex 17.4376 -0.119549 6.125
      vertex 17.425 1.36002e-15 6.125
    endloop
  endfacet
  facet normal 0 0 1
    outer loop
      vertex 18.575 8.60423e-16 3.875
      vertex 18.5253 -0.233873 3.875
      vertex 18.5624 -0.119549 3.875
    endloop
  endfacet
  facet normal 0 0 1
    outer loop
      vertex 18.575 8.60423e-16 3.875
      vertex 18.4652 -0.337976 3.875
      vertex 18.5253 -0.233873 3.875
    endloop
  endfacet
  facet normal 0 0 1
    outer loop
      vertex 18.575 8.60423e-16 3.875
      vertex 18.3848 -0.427308 3.875
      vertex 18.4652 -0.337976 3.875
    endloop
  endfacet
  facet normal 0 0 1
    outer loop
      vertex 18.575 8.60423e-16 3.875
      vertex 18.2875 -0.497964 3.875
      vertex 18.3848 -0.427308 3.875
    endloop
  endfacet
  facet normal 0 0 1
    outer loop
      vertex 18.575 8.60423e-16 3.875
      vertex 18.1777 -0.546857 3.875
      vertex 18.2875 -0.497964 3.875
    endloop
  endfacet
  facet normal 0 0 1
    outer loop
      vertex 18.575 8.60423e-16 3.875
      vertex 18.0601 -0.57185 3.875
      vertex 18.1777 -0.546857 3.875
    endloop
  endfacet
  facet normal 0 0 1
    outer loop
      vertex 18.575 8.60423e-16 3.875
      vertex 17.9399 -0.57185 3.875
      vertex 18.0601 -0.57185 3.875
    endloop
  endfacet
  facet normal 0 0 1
    outer loop
      vertex 18.575 8.60423e-16 3.875
      vertex 17.8223 -0.546857 3.875
      vertex 17.9399 -0.57185 3.875
    endloop
  endfacet
  facet normal 0 0 1
    outer loop
      vertex 18.575 8.60423e-16 3.875
      vertex 17.7125 -0.497964 3.875
      vertex 17.8223 -0.546857 3.875
    endloop
  endfacet
  facet normal 0 0 1
    outer loop
      vertex 18.575 8.60423e-16 3.875
      vertex 17.6152 -0.427308 3.875
      vertex 17.7125 -0.497964 3.875
    endloop
  endfacet
  facet normal 0 0 1
    outer loop
      vertex 18.575 8.60423e-16 3.875
      vertex 17.5348 -0.337976 3.875
      vertex 17.6152 -0.427308 3.875
    endloop
  endfacet
  facet normal 0 0 1
    outer loop
      vertex 18.575 8.60423e-16 3.875
      vertex 17.4747 -0.233873 3.875
      vertex 17.5348 -0.337976 3.875
    endloop
  endfacet
  facet normal 0 0 1
    outer loop
      vertex 18.575 8.60423e-16 3.875
      vertex 17.4376 -0.119549 3.875
      vertex 17.4747 -0.233873 3.875
    endloop
  endfacet
  facet normal 0 -0 1
    outer loop
      vertex 17.4376 -0.119549 3.875
      vertex 18.575 8.60423e-16 3.875
      vertex 17.425 8.60423e-16 3.875
    endloop
  endfacet
  facet normal -0.587775 0.809024 0
    outer loop
      vertex 18.3848 -0.427308 3.875
      vertex 18.2875 -0.497964 6.125
      vertex 18.3848 -0.427308 6.125
    endloop
  endfacet
  facet normal -0.587775 0.809024 0
    outer loop
      vertex 18.2875 -0.497964 6.125
      vertex 18.3848 -0.427308 3.875
      vertex 18.2875 -0.497964 3.875
    endloop
  endfacet
  facet normal -0.743152 0.669123 0
    outer loop
      vertex 18.3848 -0.427308 3.875
      vertex 18.4652 -0.337976 6.125
      vertex 18.4652 -0.337976 3.875
    endloop
  endfacet
  facet normal -0.743152 0.669123 0
    outer loop
      vertex 18.4652 -0.337976 6.125
      vertex 18.3848 -0.427308 3.875
      vertex 18.3848 -0.427308 6.125
    endloop
  endfacet
  facet normal -0.951054 0.309026 0
    outer loop
      vertex 18.5253 -0.233873 3.875
      vertex 18.5624 -0.119549 6.125
      vertex 18.5624 -0.119549 3.875
    endloop
  endfacet
  facet normal -0.951054 0.309026 0
    outer loop
      vertex 18.5624 -0.119549 6.125
      vertex 18.5253 -0.233873 3.875
      vertex 18.5253 -0.233873 6.125
    endloop
  endfacet
  facet normal -0.994521 0.104533 -2.32501e-17
    outer loop
      vertex 18.5624 -0.119549 3.875
      vertex 18.575 1.36002e-15 6.125
      vertex 18.575 8.60423e-16 3.875
    endloop
  endfacet
  facet normal -0.994521 0.104533 0
    outer loop
      vertex 18.575 1.36002e-15 6.125
      vertex 18.5624 -0.119549 3.875
      vertex 18.5624 -0.119549 6.125
    endloop
  endfacet
  facet normal 0.866024 0.500003 0
    outer loop
      vertex 17.5348 -0.337976 6.125
      vertex 17.4747 -0.233873 3.875
      vertex 17.4747 -0.233873 6.125
    endloop
  endfacet
  facet normal 0.866024 0.500003 0
    outer loop
      vertex 17.4747 -0.233873 3.875
      vertex 17.5348 -0.337976 6.125
      vertex 17.5348 -0.337976 3.875
    endloop
  endfacet
  facet normal 0.587783 0.809019 -0
    outer loop
      vertex 17.7125 -0.497964 3.875
      vertex 17.6152 -0.427308 6.125
      vertex 17.7125 -0.497964 6.125
    endloop
  endfacet
  facet normal 0.587783 0.809019 0
    outer loop
      vertex 17.6152 -0.427308 6.125
      vertex 17.7125 -0.497964 3.875
      vertex 17.6152 -0.427308 3.875
    endloop
  endfacet
  facet normal 0.406736 0.913546 -0
    outer loop
      vertex 17.8223 -0.546857 3.875
      vertex 17.7125 -0.497964 6.125
      vertex 17.8223 -0.546857 6.125
    endloop
  endfacet
  facet normal 0.406736 0.913546 0
    outer loop
      vertex 17.7125 -0.497964 6.125
      vertex 17.8223 -0.546857 3.875
      vertex 17.7125 -0.497964 3.875
    endloop
  endfacet
  facet normal 0.207915 0.978147 -0
    outer loop
      vertex 17.9399 -0.57185 3.875
      vertex 17.8223 -0.546857 6.125
      vertex 17.9399 -0.57185 6.125
    endloop
  endfacet
  facet normal 0.207915 0.978147 0
    outer loop
      vertex 17.8223 -0.546857 6.125
      vertex 17.9399 -0.57185 3.875
      vertex 17.8223 -0.546857 3.875
    endloop
  endfacet
  facet normal 0.743144 0.669132 0
    outer loop
      vertex 17.6152 -0.427308 6.125
      vertex 17.5348 -0.337976 3.875
      vertex 17.5348 -0.337976 6.125
    endloop
  endfacet
  facet normal 0.743144 0.669132 0
    outer loop
      vertex 17.5348 -0.337976 3.875
      vertex 17.6152 -0.427308 6.125
      vertex 17.6152 -0.427308 3.875
    endloop
  endfacet
  facet normal 0.951058 0.309012 0
    outer loop
      vertex 17.4747 -0.233873 6.125
      vertex 17.4376 -0.119549 3.875
      vertex 17.4376 -0.119549 6.125
    endloop
  endfacet
  facet normal 0.951058 0.309012 0
    outer loop
      vertex 17.4376 -0.119549 3.875
      vertex 17.4747 -0.233873 6.125
      vertex 17.4747 -0.233873 3.875
    endloop
  endfacet
  facet normal 0.994521 0.104533 -2.32501e-17
    outer loop
      vertex 17.4376 -0.119549 6.125
      vertex 17.425 8.60423e-16 3.875
      vertex 17.425 1.36002e-15 6.125
    endloop
  endfacet
  facet normal 0.994521 0.104533 0
    outer loop
      vertex 17.425 8.60423e-16 3.875
      vertex 17.4376 -0.119549 6.125
      vertex 17.4376 -0.119549 3.875
    endloop
  endfacet
  facet normal -0.406742 0.913543 0
    outer loop
      vertex 18.2875 -0.497964 3.875
      vertex 18.1777 -0.546857 6.125
      vertex 18.2875 -0.497964 6.125
    endloop
  endfacet
  facet normal -0.406742 0.913543 0
    outer loop
      vertex 18.1777 -0.546857 6.125
      vertex 18.2875 -0.497964 3.875
      vertex 18.1777 -0.546857 3.875
    endloop
  endfacet
  facet normal -0.207915 0.978147 0
    outer loop
      vertex 18.1777 -0.546857 3.875
      vertex 18.0601 -0.57185 6.125
      vertex 18.1777 -0.546857 6.125
    endloop
  endfacet
  facet normal -0.207915 0.978147 0
    outer loop
      vertex 18.0601 -0.57185 6.125
      vertex 18.1777 -0.546857 3.875
      vertex 18.0601 -0.57185 3.875
    endloop
  endfacet
endsolid OpenSCAD_Model
