solid OpenSCAD_Model
  facet normal 0 0 -1
    outer loop
      vertex 13.205 2.80681 0
      vertex 17.1176 3.63845 0
      vertex 17.5 0 0
    endloop
  endfacet
  facet normal -0 0 -1
    outer loop
      vertex 17.1176 3.63845 0
      vertex 13.205 2.80681 0
      vertex 15.987 7.11789 0
    endloop
  endfacet
  facet normal 0 0 -1
    outer loop
      vertex 13.205 2.80681 0
      vertex 17.5 0 0
      vertex 13.5 0 0
    endloop
  endfacet
  facet normal 0 0 -1
    outer loop
      vertex 12.3329 5.49094 0
      vertex 15.987 7.11789 0
      vertex 13.205 2.80681 0
    endloop
  endfacet
  facet normal -0 0 -1
    outer loop
      vertex 15.987 7.11789 0
      vertex 12.3329 5.49094 0
      vertex 14.1578 10.2862 0
    endloop
  endfacet
  facet normal 0 0 -1
    outer loop
      vertex 10.9217 7.9351 0
      vertex 14.1578 10.2862 0
      vertex 12.3329 5.49094 0
    endloop
  endfacet
  facet normal -0 0 -1
    outer loop
      vertex 14.1578 10.2862 0
      vertex 10.9217 7.9351 0
      vertex 11.7098 13.005 0
    endloop
  endfacet
  facet normal 0 0 -1
    outer loop
      vertex 9.03326 10.0325 0
      vertex 11.7098 13.005 0
      vertex 10.9217 7.9351 0
    endloop
  endfacet
  facet normal 0 0 -1
    outer loop
      vertex 9.03326 10.0325 0
      vertex 8.75 15.1554 0
      vertex 11.7098 13.005 0
    endloop
  endfacet
  facet normal 0 0 -1
    outer loop
      vertex 6.75 11.6913 0
      vertex 8.75 15.1554 0
      vertex 9.03326 10.0325 0
    endloop
  endfacet
  facet normal 0 0 -1
    outer loop
      vertex 6.75 11.6913 0
      vertex 5.4078 16.6435 0
      vertex 8.75 15.1554 0
    endloop
  endfacet
  facet normal 0 0 -1
    outer loop
      vertex 4.17173 12.8393 0
      vertex 5.4078 16.6435 0
      vertex 6.75 11.6913 0
    endloop
  endfacet
  facet normal 0 0 -1
    outer loop
      vertex 4.17173 12.8393 0
      vertex 2 17.3678 0
      vertex 5.4078 16.6435 0
    endloop
  endfacet
  facet normal 0 0 -1
    outer loop
      vertex -2 17.3678 0
      vertex 2 17.3678 0
      vertex 1.41113 13.426 0
    endloop
  endfacet
  facet normal 0 0 -1
    outer loop
      vertex 1.41113 13.426 0
      vertex 2 17.3678 0
      vertex 4.17173 12.8393 0
    endloop
  endfacet
  facet normal 0 0 -1
    outer loop
      vertex 7.82518 99.9367 0
      vertex 11.7378 99.1051 0
      vertex 10.9625 96.7192 0
    endloop
  endfacet
  facet normal 0 0 -1
    outer loop
      vertex 7.30836 98.3461 0
      vertex 10.9625 96.7192 0
      vertex 9.7082 94.5466 0
    endloop
  endfacet
  facet normal 0 0 -1
    outer loop
      vertex 6.47214 96.8977 0
      vertex 9.7082 94.5466 0
      vertex 8.02957 92.6823 0
    endloop
  endfacet
  facet normal 0 -0 -1
    outer loop
      vertex 7.82518 99.9367 0
      vertex 10.9625 96.7192 0
      vertex 7.30836 98.3461 0
    endloop
  endfacet
  facet normal -0 0 -1
    outer loop
      vertex 12 101.6 0
      vertex 7.82518 99.9367 0
      vertex 8 101.6 0
    endloop
  endfacet
  facet normal 0 0 -1
    outer loop
      vertex 11.7378 99.1051 0
      vertex 7.82518 99.9367 0
      vertex 12 101.6 0
    endloop
  endfacet
  facet normal 0 0 -1
    outer loop
      vertex 9.7082 94.5466 0
      vertex 6.47214 96.8977 0
      vertex 7.30836 98.3461 0
    endloop
  endfacet
  facet normal 0 0 -1
    outer loop
      vertex 5.35304 95.6548 0
      vertex 8.02957 92.6823 0
      vertex 6 91.2077 0
    endloop
  endfacet
  facet normal 0 0 -1
    outer loop
      vertex 8.02957 92.6823 0
      vertex 5.35304 95.6548 0
      vertex 6.47214 96.8977 0
    endloop
  endfacet
  facet normal 0 0 -1
    outer loop
      vertex 6 91.2077 0
      vertex 4 94.6718 0
      vertex 5.35304 95.6548 0
    endloop
  endfacet
  facet normal 0 0 -1
    outer loop
      vertex 3.7082 90.1873 0
      vertex 4 94.6718 0
      vertex 6 91.2077 0
    endloop
  endfacet
  facet normal 0 0 -1
    outer loop
      vertex 3.7082 90.1873 0
      vertex 2.47214 93.9915 0
      vertex 4 94.6718 0
    endloop
  endfacet
  facet normal 0 0 -1
    outer loop
      vertex 2 89.8242 0
      vertex 2.47214 93.9915 0
      vertex 3.7082 90.1873 0
    endloop
  endfacet
  facet normal 0 0 -1
    outer loop
      vertex 2 89.8242 0
      vertex 0.836227 93.6438 0
      vertex 2.47214 93.9915 0
    endloop
  endfacet
  facet normal 0 0 -1
    outer loop
      vertex 2 17.3678 0
      vertex -2 17.3678 0
      vertex 2 89.8242 0
    endloop
  endfacet
  facet normal 0 0 -1
    outer loop
      vertex 2 89.8242 0
      vertex -2 89.8242 0
      vertex 0.836227 93.6438 0
    endloop
  endfacet
  facet normal 0 0 -1
    outer loop
      vertex -2 17.3678 0
      vertex 1.41113 13.426 0
      vertex -1.41113 13.426 0
    endloop
  endfacet
  facet normal -0 0 -1
    outer loop
      vertex 2 89.8242 0
      vertex -2 17.3678 0
      vertex -2 89.8242 0
    endloop
  endfacet
  facet normal -0 0 -1
    outer loop
      vertex 0.836227 93.6438 0
      vertex -2 89.8242 0
      vertex -0.836227 93.6438 0
    endloop
  endfacet
  facet normal 0 0 -1
    outer loop
      vertex -2 89.8242 0
      vertex -2.47214 93.9915 0
      vertex -0.836227 93.6438 0
    endloop
  endfacet
  facet normal 0 0 -1
    outer loop
      vertex -3.7082 90.1873 0
      vertex -2.47214 93.9915 0
      vertex -2 89.8242 0
    endloop
  endfacet
  facet normal 0 0 -1
    outer loop
      vertex -3.7082 90.1873 0
      vertex -4 94.6718 0
      vertex -2.47214 93.9915 0
    endloop
  endfacet
  facet normal 0 0 -1
    outer loop
      vertex -6 91.2077 0
      vertex -4 94.6718 0
      vertex -3.7082 90.1873 0
    endloop
  endfacet
  facet normal -0 0 -1
    outer loop
      vertex -4 94.6718 0
      vertex -6 91.2077 0
      vertex -5.35304 95.6548 0
    endloop
  endfacet
  facet normal 0 0 -1
    outer loop
      vertex -8.02957 92.6823 0
      vertex -5.35304 95.6548 0
      vertex -6 91.2077 0
    endloop
  endfacet
  facet normal -0 0 -1
    outer loop
      vertex -5.35304 95.6548 0
      vertex -8.02957 92.6823 0
      vertex -6.47214 96.8977 0
    endloop
  endfacet
  facet normal 0 0 -1
    outer loop
      vertex -9.7082 94.5466 0
      vertex -6.47214 96.8977 0
      vertex -8.02957 92.6823 0
    endloop
  endfacet
  facet normal -0 0 -1
    outer loop
      vertex -6.47214 96.8977 0
      vertex -9.7082 94.5466 0
      vertex -7.30836 98.3461 0
    endloop
  endfacet
  facet normal 0 0 -1
    outer loop
      vertex -10.9625 96.7192 0
      vertex -7.30836 98.3461 0
      vertex -9.7082 94.5466 0
    endloop
  endfacet
  facet normal -0 0 -1
    outer loop
      vertex -7.30836 98.3461 0
      vertex -10.9625 96.7192 0
      vertex -7.82518 99.9367 0
    endloop
  endfacet
  facet normal 0 0 -1
    outer loop
      vertex -11.7378 99.1051 0
      vertex -7.82518 99.9367 0
      vertex -10.9625 96.7192 0
    endloop
  endfacet
  facet normal -0 0 -1
    outer loop
      vertex -7.82518 99.9367 0
      vertex -11.7378 99.1051 0
      vertex -8 101.6 0
    endloop
  endfacet
  facet normal -0 0 -1
    outer loop
      vertex -8 101.6 0
      vertex -11.7378 99.1051 0
      vertex -12 101.6 0
    endloop
  endfacet
  facet normal 0 0 -1
    outer loop
      vertex -4.17173 12.8393 0
      vertex -2 17.3678 0
      vertex -1.41113 13.426 0
    endloop
  endfacet
  facet normal 0 0 -1
    outer loop
      vertex -4.17173 12.8393 0
      vertex -5.4078 16.6435 0
      vertex -2 17.3678 0
    endloop
  endfacet
  facet normal 0 0 -1
    outer loop
      vertex -6.75 11.6913 0
      vertex -5.4078 16.6435 0
      vertex -4.17173 12.8393 0
    endloop
  endfacet
  facet normal 0 0 -1
    outer loop
      vertex -6.75 11.6913 0
      vertex -8.75 15.1554 0
      vertex -5.4078 16.6435 0
    endloop
  endfacet
  facet normal 0 0 -1
    outer loop
      vertex -9.03326 10.0325 0
      vertex -8.75 15.1554 0
      vertex -6.75 11.6913 0
    endloop
  endfacet
  facet normal 0 0 -1
    outer loop
      vertex -11.7098 13.005 0
      vertex -9.03326 10.0325 0
      vertex -10.9217 7.9351 0
    endloop
  endfacet
  facet normal 0 0 -1
    outer loop
      vertex -9.03326 10.0325 0
      vertex -11.7098 13.005 0
      vertex -8.75 15.1554 0
    endloop
  endfacet
  facet normal 0 0 -1
    outer loop
      vertex -14.1578 10.2862 0
      vertex -10.9217 7.9351 0
      vertex -12.3329 5.49094 0
    endloop
  endfacet
  facet normal 0 0 -1
    outer loop
      vertex -15.987 7.11789 0
      vertex -12.3329 5.49094 0
      vertex -13.205 2.80681 0
    endloop
  endfacet
  facet normal 0 0 -1
    outer loop
      vertex -10.9217 7.9351 0
      vertex -14.1578 10.2862 0
      vertex -11.7098 13.005 0
    endloop
  endfacet
  facet normal 0 0 -1
    outer loop
      vertex -17.1176 3.63845 0
      vertex -13.205 2.80681 0
      vertex -13.5 0 0
    endloop
  endfacet
  facet normal 0 0 -1
    outer loop
      vertex -12.3329 5.49094 0
      vertex -15.987 7.11789 0
      vertex -14.1578 10.2862 0
    endloop
  endfacet
  facet normal 0 0 -1
    outer loop
      vertex -13.205 2.80681 0
      vertex -17.1176 3.63845 0
      vertex -15.987 7.11789 0
    endloop
  endfacet
  facet normal 0 -0 -1
    outer loop
      vertex -17.1176 3.63845 0
      vertex -13.5 0 0
      vertex -17.5 0 0
    endloop
  endfacet
  facet normal 0.866025 -0.5 0
    outer loop
      vertex 9.7082 94.5466 15
      vertex 10.9625 96.7192 0
      vertex 10.9625 96.7192 15
    endloop
  endfacet
  facet normal 0.866025 -0.5 0
    outer loop
      vertex 10.9625 96.7192 0
      vertex 9.7082 94.5466 15
      vertex 9.7082 94.5466 0
    endloop
  endfacet
  facet normal -0 0 1
    outer loop
      vertex 7.82518 99.9367 15
      vertex 11.7378 99.1051 15
      vertex 12 101.6 15
    endloop
  endfacet
  facet normal 0 0 1
    outer loop
      vertex 11.7378 99.1051 15
      vertex 7.82518 99.9367 15
      vertex 10.9625 96.7192 15
    endloop
  endfacet
  facet normal 0 0 1
    outer loop
      vertex 10.9625 96.7192 15
      vertex 7.30836 98.3461 15
      vertex 9.7082 94.5466 15
    endloop
  endfacet
  facet normal 0 0 1
    outer loop
      vertex 7.82518 99.9367 15
      vertex 12 101.6 15
      vertex 8 101.6 15
    endloop
  endfacet
  facet normal 0 0 1
    outer loop
      vertex 10.9625 96.7192 15
      vertex 7.82518 99.9367 15
      vertex 7.30836 98.3461 15
    endloop
  endfacet
  facet normal -0 0 1
    outer loop
      vertex 6.47214 96.8977 15
      vertex 9.7082 94.5466 15
      vertex 7.30836 98.3461 15
    endloop
  endfacet
  facet normal 0 0 1
    outer loop
      vertex 9.7082 94.5466 15
      vertex 6.47214 96.8977 15
      vertex 8.02957 92.6823 15
    endloop
  endfacet
  facet normal -0 0 1
    outer loop
      vertex 5.35304 95.6548 15
      vertex 8.02957 92.6823 15
      vertex 6.47214 96.8977 15
    endloop
  endfacet
  facet normal 0 0 1
    outer loop
      vertex 8.02957 92.6823 15
      vertex 5.35304 95.6548 15
      vertex 6 91.2077 15
    endloop
  endfacet
  facet normal -0 0 1
    outer loop
      vertex 4 94.6718 15
      vertex 6 91.2077 15
      vertex 5.35304 95.6548 15
    endloop
  endfacet
  facet normal 0 0 1
    outer loop
      vertex 4 94.6718 15
      vertex 3.7082 90.1873 15
      vertex 6 91.2077 15
    endloop
  endfacet
  facet normal -0 0 1
    outer loop
      vertex 2.47214 93.9915 15
      vertex 3.7082 90.1873 15
      vertex 4 94.6718 15
    endloop
  endfacet
  facet normal 0 0 1
    outer loop
      vertex 2.47214 93.9915 15
      vertex 2 89.8242 15
      vertex 3.7082 90.1873 15
    endloop
  endfacet
  facet normal 0 0 1
    outer loop
      vertex -2 17.3678 15
      vertex 2 17.3678 15
      vertex 2 89.8242 15
    endloop
  endfacet
  facet normal -0 0 1
    outer loop
      vertex 0.836227 93.6438 15
      vertex 2 89.8242 15
      vertex 2.47214 93.9915 15
    endloop
  endfacet
  facet normal 0 0 1
    outer loop
      vertex -2 89.8242 15
      vertex 2 89.8242 15
      vertex 0.836227 93.6438 15
    endloop
  endfacet
  facet normal 0 0 1
    outer loop
      vertex -2 89.8242 15
      vertex 0.836227 93.6438 15
      vertex -0.836227 93.6438 15
    endloop
  endfacet
  facet normal 0 0 1
    outer loop
      vertex -2 17.3678 15
      vertex 2 89.8242 15
      vertex -2 89.8242 15
    endloop
  endfacet
  facet normal 0 0 1
    outer loop
      vertex 2 17.3678 15
      vertex -2 17.3678 15
      vertex 1.41113 13.426 15
    endloop
  endfacet
  facet normal 0 0 1
    outer loop
      vertex -2.47214 93.9915 15
      vertex -2 89.8242 15
      vertex -0.836227 93.6438 15
    endloop
  endfacet
  facet normal 0 0 1
    outer loop
      vertex -2.47214 93.9915 15
      vertex -3.7082 90.1873 15
      vertex -2 89.8242 15
    endloop
  endfacet
  facet normal 0 0 1
    outer loop
      vertex -4 94.6718 15
      vertex -3.7082 90.1873 15
      vertex -2.47214 93.9915 15
    endloop
  endfacet
  facet normal 0 0 1
    outer loop
      vertex -6 91.2077 15
      vertex -4 94.6718 15
      vertex -5.35304 95.6548 15
    endloop
  endfacet
  facet normal 0 0 1
    outer loop
      vertex -4 94.6718 15
      vertex -6 91.2077 15
      vertex -3.7082 90.1873 15
    endloop
  endfacet
  facet normal 0 0 1
    outer loop
      vertex -8.02957 92.6823 15
      vertex -5.35304 95.6548 15
      vertex -6.47214 96.8977 15
    endloop
  endfacet
  facet normal 0 0 1
    outer loop
      vertex -9.7082 94.5466 15
      vertex -6.47214 96.8977 15
      vertex -7.30836 98.3461 15
    endloop
  endfacet
  facet normal 0 0 1
    outer loop
      vertex -10.9625 96.7192 15
      vertex -7.30836 98.3461 15
      vertex -7.82518 99.9367 15
    endloop
  endfacet
  facet normal 0 0 1
    outer loop
      vertex -5.35304 95.6548 15
      vertex -8.02957 92.6823 15
      vertex -6 91.2077 15
    endloop
  endfacet
  facet normal 0 0 1
    outer loop
      vertex -11.7378 99.1051 15
      vertex -7.82518 99.9367 15
      vertex -8 101.6 15
    endloop
  endfacet
  facet normal 0 0 1
    outer loop
      vertex -6.47214 96.8977 15
      vertex -9.7082 94.5466 15
      vertex -8.02957 92.6823 15
    endloop
  endfacet
  facet normal 0 0 1
    outer loop
      vertex -7.30836 98.3461 15
      vertex -10.9625 96.7192 15
      vertex -9.7082 94.5466 15
    endloop
  endfacet
  facet normal 0 0 1
    outer loop
      vertex -7.82518 99.9367 15
      vertex -11.7378 99.1051 15
      vertex -10.9625 96.7192 15
    endloop
  endfacet
  facet normal 0 -0 1
    outer loop
      vertex -11.7378 99.1051 15
      vertex -8 101.6 15
      vertex -12 101.6 15
    endloop
  endfacet
  facet normal 0 0 1
    outer loop
      vertex 13.205 2.80681 15
      vertex 17.1176 3.63845 15
      vertex 15.987 7.11789 15
    endloop
  endfacet
  facet normal 0 0 1
    outer loop
      vertex 12.3329 5.49094 15
      vertex 15.987 7.11789 15
      vertex 14.1578 10.2862 15
    endloop
  endfacet
  facet normal 0 0 1
    outer loop
      vertex 17.1176 3.63845 15
      vertex 13.205 2.80681 15
      vertex 17.5 0 15
    endloop
  endfacet
  facet normal 0 0 1
    outer loop
      vertex 17.5 0 15
      vertex 13.205 2.80681 15
      vertex 13.5 0 15
    endloop
  endfacet
  facet normal 0 0 1
    outer loop
      vertex 15.987 7.11789 15
      vertex 12.3329 5.49094 15
      vertex 13.205 2.80681 15
    endloop
  endfacet
  facet normal 0 0 1
    outer loop
      vertex 10.9217 7.9351 15
      vertex 14.1578 10.2862 15
      vertex 11.7098 13.005 15
    endloop
  endfacet
  facet normal 0 0 1
    outer loop
      vertex 14.1578 10.2862 15
      vertex 10.9217 7.9351 15
      vertex 12.3329 5.49094 15
    endloop
  endfacet
  facet normal 0 0 1
    outer loop
      vertex 11.7098 13.005 15
      vertex 9.03326 10.0325 15
      vertex 10.9217 7.9351 15
    endloop
  endfacet
  facet normal 0 0 1
    outer loop
      vertex 8.75 15.1554 15
      vertex 9.03326 10.0325 15
      vertex 11.7098 13.005 15
    endloop
  endfacet
  facet normal 0 0 1
    outer loop
      vertex 8.75 15.1554 15
      vertex 6.75 11.6913 15
      vertex 9.03326 10.0325 15
    endloop
  endfacet
  facet normal 0 0 1
    outer loop
      vertex 5.4078 16.6435 15
      vertex 6.75 11.6913 15
      vertex 8.75 15.1554 15
    endloop
  endfacet
  facet normal 0 0 1
    outer loop
      vertex 5.4078 16.6435 15
      vertex 4.17173 12.8393 15
      vertex 6.75 11.6913 15
    endloop
  endfacet
  facet normal 0 0 1
    outer loop
      vertex 2 17.3678 15
      vertex 4.17173 12.8393 15
      vertex 5.4078 16.6435 15
    endloop
  endfacet
  facet normal 0 0 1
    outer loop
      vertex 4.17173 12.8393 15
      vertex 2 17.3678 15
      vertex 1.41113 13.426 15
    endloop
  endfacet
  facet normal 0 0 1
    outer loop
      vertex 1.41113 13.426 15
      vertex -2 17.3678 15
      vertex -1.41113 13.426 15
    endloop
  endfacet
  facet normal 0 0 1
    outer loop
      vertex -2 17.3678 15
      vertex -4.17173 12.8393 15
      vertex -1.41113 13.426 15
    endloop
  endfacet
  facet normal -0 0 1
    outer loop
      vertex -5.4078 16.6435 15
      vertex -4.17173 12.8393 15
      vertex -2 17.3678 15
    endloop
  endfacet
  facet normal 0 0 1
    outer loop
      vertex -5.4078 16.6435 15
      vertex -6.75 11.6913 15
      vertex -4.17173 12.8393 15
    endloop
  endfacet
  facet normal -0 0 1
    outer loop
      vertex -8.75 15.1554 15
      vertex -6.75 11.6913 15
      vertex -5.4078 16.6435 15
    endloop
  endfacet
  facet normal 0 0 1
    outer loop
      vertex -8.75 15.1554 15
      vertex -9.03326 10.0325 15
      vertex -6.75 11.6913 15
    endloop
  endfacet
  facet normal -0 0 1
    outer loop
      vertex -11.7098 13.005 15
      vertex -9.03326 10.0325 15
      vertex -8.75 15.1554 15
    endloop
  endfacet
  facet normal 0 0 1
    outer loop
      vertex -9.03326 10.0325 15
      vertex -11.7098 13.005 15
      vertex -10.9217 7.9351 15
    endloop
  endfacet
  facet normal -0 0 1
    outer loop
      vertex -14.1578 10.2862 15
      vertex -10.9217 7.9351 15
      vertex -11.7098 13.005 15
    endloop
  endfacet
  facet normal 0 0 1
    outer loop
      vertex -10.9217 7.9351 15
      vertex -14.1578 10.2862 15
      vertex -12.3329 5.49094 15
    endloop
  endfacet
  facet normal -0 0 1
    outer loop
      vertex -15.987 7.11789 15
      vertex -12.3329 5.49094 15
      vertex -14.1578 10.2862 15
    endloop
  endfacet
  facet normal 0 0 1
    outer loop
      vertex -12.3329 5.49094 15
      vertex -15.987 7.11789 15
      vertex -13.205 2.80681 15
    endloop
  endfacet
  facet normal -0 0 1
    outer loop
      vertex -17.1176 3.63845 15
      vertex -13.205 2.80681 15
      vertex -15.987 7.11789 15
    endloop
  endfacet
  facet normal 0 0 1
    outer loop
      vertex -13.205 2.80681 15
      vertex -17.1176 3.63845 15
      vertex -13.5 0 15
    endloop
  endfacet
  facet normal 0 0 1
    outer loop
      vertex -13.5 0 15
      vertex -17.1176 3.63845 15
      vertex -17.5 0 15
    endloop
  endfacet
  facet normal -0.207912 -0.978148 0
    outer loop
      vertex -3.7082 90.1873 15
      vertex -2 89.8242 11
      vertex -2 89.8242 15
    endloop
  endfacet
  facet normal -0.20791 -0.978148 -0
    outer loop
      vertex -2 89.8242 11
      vertex -2 89.8242 4
      vertex -1.25434 89.6657 11
    endloop
  endfacet
  facet normal -0.207912 -0.978148 0
    outer loop
      vertex -3.7082 90.1873 15
      vertex -2 89.8242 4
      vertex -2 89.8242 11
    endloop
  endfacet
  facet normal -0.207912 -0.978148 0
    outer loop
      vertex -3.7082 90.1873 0
      vertex -2 89.8242 4
      vertex -3.7082 90.1873 15
    endloop
  endfacet
  facet normal -0.207912 -0.978148 -0
    outer loop
      vertex -2 89.8242 4
      vertex -3.7082 90.1873 0
      vertex -2 89.8242 0
    endloop
  endfacet
  facet normal -0.20791 -0.978148 -0
    outer loop
      vertex -1.25434 89.6657 11
      vertex -2 89.8242 4
      vertex -1.25434 89.6657 4
    endloop
  endfacet
  facet normal 0.20791 -0.978148 0
    outer loop
      vertex 1.25434 89.6657 11
      vertex 1.25434 89.6657 4
      vertex 2 89.8242 11
    endloop
  endfacet
  facet normal 0.207912 -0.978148 0
    outer loop
      vertex 2 89.8242 11
      vertex 3.7082 90.1873 15
      vertex 2 89.8242 15
    endloop
  endfacet
  facet normal 0.20791 -0.978148 0
    outer loop
      vertex 2 89.8242 4
      vertex 2 89.8242 11
      vertex 1.25434 89.6657 4
    endloop
  endfacet
  facet normal 0.207912 -0.978148 0
    outer loop
      vertex 2 89.8242 11
      vertex 2 89.8242 4
      vertex 3.7082 90.1873 15
    endloop
  endfacet
  facet normal 0.207912 -0.978148 0
    outer loop
      vertex 3.7082 90.1873 0
      vertex 2 89.8242 4
      vertex 2 89.8242 0
    endloop
  endfacet
  facet normal 0.207912 -0.978148 0
    outer loop
      vertex 2 89.8242 4
      vertex 3.7082 90.1873 0
      vertex 3.7082 90.1873 15
    endloop
  endfacet
  facet normal 0.743144 -0.669131 0
    outer loop
      vertex 8.02957 92.6823 15
      vertex 9.7082 94.5466 0
      vertex 9.7082 94.5466 15
    endloop
  endfacet
  facet normal 0.743144 -0.669131 0
    outer loop
      vertex 9.7082 94.5466 0
      vertex 8.02957 92.6823 15
      vertex 8.02957 92.6823 0
    endloop
  endfacet
  facet normal 0.951056 -0.309018 0
    outer loop
      vertex 10.9625 96.7192 15
      vertex 11.7378 99.1051 0
      vertex 11.7378 99.1051 15
    endloop
  endfacet
  facet normal 0.951056 -0.309018 0
    outer loop
      vertex 11.7378 99.1051 0
      vertex 10.9625 96.7192 15
      vertex 10.9625 96.7192 0
    endloop
  endfacet
  facet normal 0.994522 -0.104528 0
    outer loop
      vertex 11.7378 99.1051 15
      vertex 12 101.6 0
      vertex 12 101.6 15
    endloop
  endfacet
  facet normal 0.994522 -0.104528 0
    outer loop
      vertex 12 101.6 0
      vertex 11.7378 99.1051 15
      vertex 11.7378 99.1051 0
    endloop
  endfacet
  facet normal -0.866025 -0.5 0
    outer loop
      vertex -9.7082 94.5466 0
      vertex -10.9625 96.7192 15
      vertex -10.9625 96.7192 0
    endloop
  endfacet
  facet normal -0.866025 -0.5 0
    outer loop
      vertex -10.9625 96.7192 15
      vertex -9.7082 94.5466 0
      vertex -9.7082 94.5466 15
    endloop
  endfacet
  facet normal -0.994522 -0.104528 0
    outer loop
      vertex -11.7378 99.1051 0
      vertex -12 101.6 15
      vertex -12 101.6 0
    endloop
  endfacet
  facet normal -0.994522 -0.104528 0
    outer loop
      vertex -12 101.6 15
      vertex -11.7378 99.1051 0
      vertex -11.7378 99.1051 15
    endloop
  endfacet
  facet normal -0.951056 -0.309018 0
    outer loop
      vertex -10.9625 96.7192 0
      vertex -11.7378 99.1051 15
      vertex -11.7378 99.1051 0
    endloop
  endfacet
  facet normal -0.951056 -0.309018 0
    outer loop
      vertex -11.7378 99.1051 15
      vertex -10.9625 96.7192 0
      vertex -10.9625 96.7192 15
    endloop
  endfacet
  facet normal 0.587786 -0.809016 0
    outer loop
      vertex 6 91.2077 0
      vertex 8.02957 92.6823 15
      vertex 6 91.2077 15
    endloop
  endfacet
  facet normal 0.587786 -0.809016 0
    outer loop
      vertex 8.02957 92.6823 15
      vertex 6 91.2077 0
      vertex 8.02957 92.6823 0
    endloop
  endfacet
  facet normal 0.406736 -0.913546 0
    outer loop
      vertex 3.7082 90.1873 0
      vertex 6 91.2077 15
      vertex 3.7082 90.1873 15
    endloop
  endfacet
  facet normal 0.406736 -0.913546 0
    outer loop
      vertex 6 91.2077 15
      vertex 3.7082 90.1873 0
      vertex 6 91.2077 0
    endloop
  endfacet
  facet normal 0 -1 0
    outer loop
      vertex -1.25434 89.6657 4
      vertex 1.25434 89.6657 11
      vertex -1.25434 89.6657 11
    endloop
  endfacet
  facet normal 0 -1 -0
    outer loop
      vertex 1.25434 89.6657 11
      vertex -1.25434 89.6657 4
      vertex 1.25434 89.6657 4
    endloop
  endfacet
  facet normal -0.406736 -0.913546 0
    outer loop
      vertex -6 91.2077 0
      vertex -3.7082 90.1873 15
      vertex -6 91.2077 15
    endloop
  endfacet
  facet normal -0.406736 -0.913546 -0
    outer loop
      vertex -3.7082 90.1873 15
      vertex -6 91.2077 0
      vertex -3.7082 90.1873 0
    endloop
  endfacet
  facet normal -0.743144 -0.669131 0
    outer loop
      vertex -8.02957 92.6823 0
      vertex -9.7082 94.5466 15
      vertex -9.7082 94.5466 0
    endloop
  endfacet
  facet normal -0.743144 -0.669131 0
    outer loop
      vertex -9.7082 94.5466 15
      vertex -8.02957 92.6823 0
      vertex -8.02957 92.6823 15
    endloop
  endfacet
  facet normal -0.587786 -0.809016 0
    outer loop
      vertex -8.02957 92.6823 0
      vertex -6 91.2077 15
      vertex -8.02957 92.6823 15
    endloop
  endfacet
  facet normal -0.587786 -0.809016 -0
    outer loop
      vertex -6 91.2077 15
      vertex -8.02957 92.6823 0
      vertex -6 91.2077 0
    endloop
  endfacet
  facet normal -0.994522 0.104529 0
    outer loop
      vertex 7.82518 99.9367 0
      vertex 8 101.6 15
      vertex 8 101.6 0
    endloop
  endfacet
  facet normal -0.994522 0.104529 0
    outer loop
      vertex 8 101.6 15
      vertex 7.82518 99.9367 0
      vertex 7.82518 99.9367 15
    endloop
  endfacet
  facet normal -0.951056 0.309017 0
    outer loop
      vertex 7.30836 98.3461 0
      vertex 7.82518 99.9367 15
      vertex 7.82518 99.9367 0
    endloop
  endfacet
  facet normal -0.951056 0.309017 0
    outer loop
      vertex 7.82518 99.9367 15
      vertex 7.30836 98.3461 0
      vertex 7.30836 98.3461 15
    endloop
  endfacet
  facet normal 0.866025 0.5 0
    outer loop
      vertex -6.47214 96.8977 15
      vertex -7.30836 98.3461 0
      vertex -7.30836 98.3461 15
    endloop
  endfacet
  facet normal 0.866025 0.5 0
    outer loop
      vertex -7.30836 98.3461 0
      vertex -6.47214 96.8977 15
      vertex -6.47214 96.8977 0
    endloop
  endfacet
  facet normal -0.587783 0.809018 0
    outer loop
      vertex 5.35304 95.6548 0
      vertex 4 94.6718 15
      vertex 5.35304 95.6548 15
    endloop
  endfacet
  facet normal -0.587783 0.809018 0
    outer loop
      vertex 4 94.6718 15
      vertex 5.35304 95.6548 0
      vertex 4 94.6718 0
    endloop
  endfacet
  facet normal -0.866025 0.5 0
    outer loop
      vertex 6.47214 96.8977 0
      vertex 7.30836 98.3461 15
      vertex 7.30836 98.3461 0
    endloop
  endfacet
  facet normal -0.866025 0.5 0
    outer loop
      vertex 7.30836 98.3461 15
      vertex 6.47214 96.8977 0
      vertex 6.47214 96.8977 15
    endloop
  endfacet
  facet normal 0 1 -0
    outer loop
      vertex 0.836227 93.6438 0
      vertex -0.836227 93.6438 15
      vertex 0.836227 93.6438 15
    endloop
  endfacet
  facet normal 0 1 0
    outer loop
      vertex -0.836227 93.6438 15
      vertex 0.836227 93.6438 0
      vertex -0.836227 93.6438 0
    endloop
  endfacet
  facet normal 0.994522 0.104529 0
    outer loop
      vertex -7.82518 99.9367 15
      vertex -8 101.6 0
      vertex -8 101.6 15
    endloop
  endfacet
  facet normal 0.994522 0.104529 0
    outer loop
      vertex -8 101.6 0
      vertex -7.82518 99.9367 15
      vertex -7.82518 99.9367 0
    endloop
  endfacet
  facet normal -0.207913 0.978147 0
    outer loop
      vertex 2.47214 93.9915 0
      vertex 0.836227 93.6438 15
      vertex 2.47214 93.9915 15
    endloop
  endfacet
  facet normal -0.207913 0.978147 0
    outer loop
      vertex 0.836227 93.6438 15
      vertex 2.47214 93.9915 0
      vertex 0.836227 93.6438 0
    endloop
  endfacet
  facet normal -0.406738 0.913545 0
    outer loop
      vertex 4 94.6718 0
      vertex 2.47214 93.9915 15
      vertex 4 94.6718 15
    endloop
  endfacet
  facet normal -0.406738 0.913545 0
    outer loop
      vertex 2.47214 93.9915 15
      vertex 4 94.6718 0
      vertex 2.47214 93.9915 0
    endloop
  endfacet
  facet normal 0.207913 0.978147 -0
    outer loop
      vertex -0.836227 93.6438 0
      vertex -2.47214 93.9915 15
      vertex -0.836227 93.6438 15
    endloop
  endfacet
  facet normal 0.207913 0.978147 0
    outer loop
      vertex -2.47214 93.9915 15
      vertex -0.836227 93.6438 0
      vertex -2.47214 93.9915 0
    endloop
  endfacet
  facet normal 0.951056 0.309017 0
    outer loop
      vertex -7.30836 98.3461 15
      vertex -7.82518 99.9367 0
      vertex -7.82518 99.9367 15
    endloop
  endfacet
  facet normal 0.951056 0.309017 0
    outer loop
      vertex -7.82518 99.9367 0
      vertex -7.30836 98.3461 15
      vertex -7.30836 98.3461 0
    endloop
  endfacet
  facet normal 0.743146 0.669129 0
    outer loop
      vertex -5.35304 95.6548 15
      vertex -6.47214 96.8977 0
      vertex -6.47214 96.8977 15
    endloop
  endfacet
  facet normal 0.743146 0.669129 0
    outer loop
      vertex -6.47214 96.8977 0
      vertex -5.35304 95.6548 15
      vertex -5.35304 95.6548 0
    endloop
  endfacet
  facet normal -0.743146 0.669129 0
    outer loop
      vertex 5.35304 95.6548 0
      vertex 6.47214 96.8977 15
      vertex 6.47214 96.8977 0
    endloop
  endfacet
  facet normal -0.743146 0.669129 0
    outer loop
      vertex 6.47214 96.8977 15
      vertex 5.35304 95.6548 0
      vertex 5.35304 95.6548 15
    endloop
  endfacet
  facet normal 0.406738 0.913545 -0
    outer loop
      vertex -2.47214 93.9915 0
      vertex -4 94.6718 15
      vertex -2.47214 93.9915 15
    endloop
  endfacet
  facet normal 0.406738 0.913545 0
    outer loop
      vertex -4 94.6718 15
      vertex -2.47214 93.9915 0
      vertex -4 94.6718 0
    endloop
  endfacet
  facet normal 0.587783 0.809018 -0
    outer loop
      vertex -4 94.6718 0
      vertex -5.35304 95.6548 15
      vertex -4 94.6718 15
    endloop
  endfacet
  facet normal 0.587783 0.809018 0
    outer loop
      vertex -5.35304 95.6548 15
      vertex -4 94.6718 0
      vertex -5.35304 95.6548 0
    endloop
  endfacet
  facet normal 0 1 -0
    outer loop
      vertex 12 101.6 0
      vertex 8 101.6 15
      vertex 12 101.6 15
    endloop
  endfacet
  facet normal 0 1 0
    outer loop
      vertex 8 101.6 15
      vertex 12 101.6 0
      vertex 8 101.6 0
    endloop
  endfacet
  facet normal 0 1 -0
    outer loop
      vertex -8 101.6 0
      vertex -12 101.6 15
      vertex -8 101.6 15
    endloop
  endfacet
  facet normal 0 1 0
    outer loop
      vertex -12 101.6 15
      vertex -8 101.6 0
      vertex -12 101.6 0
    endloop
  endfacet
  facet normal 0.994522 0.104529 0
    outer loop
      vertex 17.5 0 15
      vertex 17.1176 3.63845 0
      vertex 17.1176 3.63845 15
    endloop
  endfacet
  facet normal 0.994522 0.104529 0
    outer loop
      vertex 17.1176 3.63845 0
      vertex 17.5 0 15
      vertex 17.5 0 0
    endloop
  endfacet
  facet normal -0.994522 0.104529 0
    outer loop
      vertex -17.5 0 0
      vertex -17.1176 3.63845 15
      vertex -17.1176 3.63845 0
    endloop
  endfacet
  facet normal -0.994522 0.104529 0
    outer loop
      vertex -17.1176 3.63845 15
      vertex -17.5 0 0
      vertex -17.5 0 15
    endloop
  endfacet
  facet normal 0 1 -0
    outer loop
      vertex 1.82925 17.4041 4
      vertex -1.82925 17.4041 11
      vertex 1.82925 17.4041 11
    endloop
  endfacet
  facet normal 0 1 0
    outer loop
      vertex -1.82925 17.4041 11
      vertex 1.82925 17.4041 4
      vertex -1.82925 17.4041 4
    endloop
  endfacet
  facet normal 0.587785 0.809017 -0
    outer loop
      vertex 11.7098 13.005 0
      vertex 8.75 15.1554 15
      vertex 11.7098 13.005 15
    endloop
  endfacet
  facet normal 0.587785 0.809017 0
    outer loop
      vertex 8.75 15.1554 15
      vertex 11.7098 13.005 0
      vertex 8.75 15.1554 0
    endloop
  endfacet
  facet normal 0.406737 0.913545 -0
    outer loop
      vertex 8.75 15.1554 0
      vertex 5.4078 16.6435 15
      vertex 8.75 15.1554 15
    endloop
  endfacet
  facet normal 0.406737 0.913545 0
    outer loop
      vertex 5.4078 16.6435 15
      vertex 8.75 15.1554 0
      vertex 5.4078 16.6435 0
    endloop
  endfacet
  facet normal -0.587785 0.809017 0
    outer loop
      vertex -8.75 15.1554 0
      vertex -11.7098 13.005 15
      vertex -8.75 15.1554 15
    endloop
  endfacet
  facet normal -0.587785 0.809017 0
    outer loop
      vertex -11.7098 13.005 15
      vertex -8.75 15.1554 0
      vertex -11.7098 13.005 0
    endloop
  endfacet
  facet normal -0.207914 0.978147 0
    outer loop
      vertex -1.82925 17.4041 11
      vertex -1.82925 17.4041 4
      vertex -2 17.3678 11
    endloop
  endfacet
  facet normal -0.207911 0.978148 0
    outer loop
      vertex -2 17.3678 11
      vertex -5.4078 16.6435 15
      vertex -2 17.3678 15
    endloop
  endfacet
  facet normal -0.207914 0.978147 0
    outer loop
      vertex -2 17.3678 4
      vertex -2 17.3678 11
      vertex -1.82925 17.4041 4
    endloop
  endfacet
  facet normal -0.207911 0.978148 0
    outer loop
      vertex -2 17.3678 11
      vertex -2 17.3678 4
      vertex -5.4078 16.6435 15
    endloop
  endfacet
  facet normal -0.207911 0.978148 0
    outer loop
      vertex -5.4078 16.6435 0
      vertex -2 17.3678 4
      vertex -2 17.3678 0
    endloop
  endfacet
  facet normal -0.207911 0.978148 0
    outer loop
      vertex -2 17.3678 4
      vertex -5.4078 16.6435 0
      vertex -5.4078 16.6435 15
    endloop
  endfacet
  facet normal 0.866025 0.5 0
    outer loop
      vertex 15.987 7.11789 15
      vertex 14.1578 10.2862 0
      vertex 14.1578 10.2862 15
    endloop
  endfacet
  facet normal 0.866025 0.5 0
    outer loop
      vertex 14.1578 10.2862 0
      vertex 15.987 7.11789 15
      vertex 15.987 7.11789 0
    endloop
  endfacet
  facet normal 0.951057 0.309017 0
    outer loop
      vertex 17.1176 3.63845 15
      vertex 15.987 7.11789 0
      vertex 15.987 7.11789 15
    endloop
  endfacet
  facet normal 0.951057 0.309017 0
    outer loop
      vertex 15.987 7.11789 0
      vertex 17.1176 3.63845 15
      vertex 17.1176 3.63845 0
    endloop
  endfacet
  facet normal 0.743145 0.669131 0
    outer loop
      vertex 14.1578 10.2862 15
      vertex 11.7098 13.005 0
      vertex 11.7098 13.005 15
    endloop
  endfacet
  facet normal 0.743145 0.669131 0
    outer loop
      vertex 11.7098 13.005 0
      vertex 14.1578 10.2862 15
      vertex 14.1578 10.2862 0
    endloop
  endfacet
  facet normal 0.207911 0.978148 0
    outer loop
      vertex 5.4078 16.6435 15
      vertex 2 17.3678 11
      vertex 2 17.3678 15
    endloop
  endfacet
  facet normal 0.207914 0.978147 0
    outer loop
      vertex 2 17.3678 11
      vertex 2 17.3678 4
      vertex 1.82925 17.4041 11
    endloop
  endfacet
  facet normal 0.207911 0.978148 0
    outer loop
      vertex 5.4078 16.6435 15
      vertex 2 17.3678 4
      vertex 2 17.3678 11
    endloop
  endfacet
  facet normal 0.207911 0.978148 -0
    outer loop
      vertex 5.4078 16.6435 0
      vertex 2 17.3678 4
      vertex 5.4078 16.6435 15
    endloop
  endfacet
  facet normal 0.207911 0.978148 0
    outer loop
      vertex 2 17.3678 4
      vertex 5.4078 16.6435 0
      vertex 2 17.3678 0
    endloop
  endfacet
  facet normal 0.207914 0.978147 0
    outer loop
      vertex 1.82925 17.4041 11
      vertex 2 17.3678 4
      vertex 1.82925 17.4041 4
    endloop
  endfacet
  facet normal -0.866025 0.5 0
    outer loop
      vertex -15.987 7.11789 0
      vertex -14.1578 10.2862 15
      vertex -14.1578 10.2862 0
    endloop
  endfacet
  facet normal -0.866025 0.5 0
    outer loop
      vertex -14.1578 10.2862 15
      vertex -15.987 7.11789 0
      vertex -15.987 7.11789 15
    endloop
  endfacet
  facet normal -0.743145 0.669131 0
    outer loop
      vertex -14.1578 10.2862 0
      vertex -11.7098 13.005 15
      vertex -11.7098 13.005 0
    endloop
  endfacet
  facet normal -0.743145 0.669131 0
    outer loop
      vertex -11.7098 13.005 15
      vertex -14.1578 10.2862 0
      vertex -14.1578 10.2862 15
    endloop
  endfacet
  facet normal -0.951057 0.309017 0
    outer loop
      vertex -17.1176 3.63845 0
      vertex -15.987 7.11789 15
      vertex -15.987 7.11789 0
    endloop
  endfacet
  facet normal -0.951057 0.309017 0
    outer loop
      vertex -15.987 7.11789 15
      vertex -17.1176 3.63845 0
      vertex -17.1176 3.63845 15
    endloop
  endfacet
  facet normal -0.406737 0.913545 0
    outer loop
      vertex -5.4078 16.6435 0
      vertex -8.75 15.1554 15
      vertex -5.4078 16.6435 15
    endloop
  endfacet
  facet normal -0.406737 0.913545 0
    outer loop
      vertex -8.75 15.1554 15
      vertex -5.4078 16.6435 0
      vertex -8.75 15.1554 0
    endloop
  endfacet
  facet normal -0.994522 -0.104529 0
    outer loop
      vertex 13.5 0 0
      vertex 13.205 2.80681 15
      vertex 13.205 2.80681 0
    endloop
  endfacet
  facet normal -0.994522 -0.104529 0
    outer loop
      vertex 13.205 2.80681 15
      vertex 13.5 0 0
      vertex 13.5 0 15
    endloop
  endfacet
  facet normal 0.994522 -0.104529 0
    outer loop
      vertex -13.5 0 15
      vertex -13.205 2.80681 0
      vertex -13.205 2.80681 15
    endloop
  endfacet
  facet normal 0.994522 -0.104529 0
    outer loop
      vertex -13.205 2.80681 0
      vertex -13.5 0 15
      vertex -13.5 0 0
    endloop
  endfacet
  facet normal 0 -1 0
    outer loop
      vertex -1.41113 13.426 0
      vertex 1.41113 13.426 15
      vertex -1.41113 13.426 15
    endloop
  endfacet
  facet normal 0 -1 -0
    outer loop
      vertex 1.41113 13.426 15
      vertex -1.41113 13.426 0
      vertex 1.41113 13.426 0
    endloop
  endfacet
  facet normal -0.587785 -0.809017 0
    outer loop
      vertex 6.75 11.6913 0
      vertex 9.03326 10.0325 15
      vertex 6.75 11.6913 15
    endloop
  endfacet
  facet normal -0.587785 -0.809017 -0
    outer loop
      vertex 9.03326 10.0325 15
      vertex 6.75 11.6913 0
      vertex 9.03326 10.0325 0
    endloop
  endfacet
  facet normal -0.406737 -0.913545 0
    outer loop
      vertex 4.17173 12.8393 0
      vertex 6.75 11.6913 15
      vertex 4.17173 12.8393 15
    endloop
  endfacet
  facet normal -0.406737 -0.913545 -0
    outer loop
      vertex 6.75 11.6913 15
      vertex 4.17173 12.8393 0
      vertex 6.75 11.6913 0
    endloop
  endfacet
  facet normal 0.743145 -0.669131 0
    outer loop
      vertex -10.9217 7.9351 15
      vertex -9.03326 10.0325 0
      vertex -9.03326 10.0325 15
    endloop
  endfacet
  facet normal 0.743145 -0.669131 0
    outer loop
      vertex -9.03326 10.0325 0
      vertex -10.9217 7.9351 15
      vertex -10.9217 7.9351 0
    endloop
  endfacet
  facet normal 0.406737 -0.913545 0
    outer loop
      vertex -6.75 11.6913 0
      vertex -4.17173 12.8393 15
      vertex -6.75 11.6913 15
    endloop
  endfacet
  facet normal 0.406737 -0.913545 0
    outer loop
      vertex -4.17173 12.8393 15
      vertex -6.75 11.6913 0
      vertex -4.17173 12.8393 0
    endloop
  endfacet
  facet normal -0.866026 -0.5 0
    outer loop
      vertex 12.3329 5.49094 0
      vertex 10.9217 7.9351 15
      vertex 10.9217 7.9351 0
    endloop
  endfacet
  facet normal -0.866026 -0.5 0
    outer loop
      vertex 10.9217 7.9351 15
      vertex 12.3329 5.49094 0
      vertex 12.3329 5.49094 15
    endloop
  endfacet
  facet normal -0.951056 -0.309017 0
    outer loop
      vertex 13.205 2.80681 0
      vertex 12.3329 5.49094 15
      vertex 12.3329 5.49094 0
    endloop
  endfacet
  facet normal -0.951056 -0.309017 0
    outer loop
      vertex 12.3329 5.49094 15
      vertex 13.205 2.80681 0
      vertex 13.205 2.80681 15
    endloop
  endfacet
  facet normal -0.743145 -0.669131 0
    outer loop
      vertex 10.9217 7.9351 0
      vertex 9.03326 10.0325 15
      vertex 9.03326 10.0325 0
    endloop
  endfacet
  facet normal -0.743145 -0.669131 0
    outer loop
      vertex 9.03326 10.0325 15
      vertex 10.9217 7.9351 0
      vertex 10.9217 7.9351 15
    endloop
  endfacet
  facet normal -0.207912 -0.978148 0
    outer loop
      vertex 1.41113 13.426 0
      vertex 4.17173 12.8393 15
      vertex 1.41113 13.426 15
    endloop
  endfacet
  facet normal -0.207912 -0.978148 -0
    outer loop
      vertex 4.17173 12.8393 15
      vertex 1.41113 13.426 0
      vertex 4.17173 12.8393 0
    endloop
  endfacet
  facet normal 0.866026 -0.5 0
    outer loop
      vertex -12.3329 5.49094 15
      vertex -10.9217 7.9351 0
      vertex -10.9217 7.9351 15
    endloop
  endfacet
  facet normal 0.866026 -0.5 0
    outer loop
      vertex -10.9217 7.9351 0
      vertex -12.3329 5.49094 15
      vertex -12.3329 5.49094 0
    endloop
  endfacet
  facet normal 0.951056 -0.309017 0
    outer loop
      vertex -13.205 2.80681 15
      vertex -12.3329 5.49094 0
      vertex -12.3329 5.49094 15
    endloop
  endfacet
  facet normal 0.951056 -0.309017 0
    outer loop
      vertex -12.3329 5.49094 0
      vertex -13.205 2.80681 15
      vertex -13.205 2.80681 0
    endloop
  endfacet
  facet normal 0.587785 -0.809017 0
    outer loop
      vertex -9.03326 10.0325 0
      vertex -6.75 11.6913 15
      vertex -9.03326 10.0325 15
    endloop
  endfacet
  facet normal 0.587785 -0.809017 0
    outer loop
      vertex -6.75 11.6913 15
      vertex -9.03326 10.0325 0
      vertex -6.75 11.6913 0
    endloop
  endfacet
  facet normal 0.207912 -0.978148 0
    outer loop
      vertex -4.17173 12.8393 0
      vertex -1.41113 13.426 15
      vertex -4.17173 12.8393 15
    endloop
  endfacet
  facet normal 0.207912 -0.978148 0
    outer loop
      vertex -1.41113 13.426 15
      vertex -4.17173 12.8393 0
      vertex -1.41113 13.426 0
    endloop
  endfacet
  facet normal 0 -1 0
    outer loop
      vertex 13.5 0 0
      vertex 17.5 0 15
      vertex 13.5 0 15
    endloop
  endfacet
  facet normal 0 -1 -0
    outer loop
      vertex 17.5 0 15
      vertex 13.5 0 0
      vertex 17.5 0 0
    endloop
  endfacet
  facet normal 0 -1 0
    outer loop
      vertex -17.5 0 0
      vertex -13.5 0 15
      vertex -17.5 0 15
    endloop
  endfacet
  facet normal 0 -1 -0
    outer loop
      vertex -13.5 0 15
      vertex -17.5 0 0
      vertex -13.5 0 0
    endloop
  endfacet
  facet normal -1 0 0
    outer loop
      vertex -2 89.8242 0
      vertex -2 86.1 4
      vertex -2 89.8242 4
    endloop
  endfacet
  facet normal -1 0 0
    outer loop
      vertex -2 86.1 4
      vertex -2 21 4
      vertex -2 86.1 11
    endloop
  endfacet
  facet normal -1 0 0
    outer loop
      vertex -2 17.3678 0
      vertex -2 86.1 4
      vertex -2 89.8242 0
    endloop
  endfacet
  facet normal -1 -0 0
    outer loop
      vertex -2 86.1 4
      vertex -2 17.3678 0
      vertex -2 21 4
    endloop
  endfacet
  facet normal -1 -0 0
    outer loop
      vertex -2 21 4
      vertex -2 17.3678 0
      vertex -2 17.3678 4
    endloop
  endfacet
  facet normal -1 0 0
    outer loop
      vertex -2 86.1 11
      vertex -2 89.8242 15
      vertex -2 89.8242 11
    endloop
  endfacet
  facet normal -1 0 0
    outer loop
      vertex -2 21 11
      vertex -2 86.1 11
      vertex -2 21 4
    endloop
  endfacet
  facet normal -1 0 0
    outer loop
      vertex -2 17.3678 15
      vertex -2 86.1 11
      vertex -2 21 11
    endloop
  endfacet
  facet normal -1 0 0
    outer loop
      vertex -2 17.3678 15
      vertex -2 21 11
      vertex -2 17.3678 11
    endloop
  endfacet
  facet normal -1 0 0
    outer loop
      vertex -2 86.1 11
      vertex -2 17.3678 15
      vertex -2 89.8242 15
    endloop
  endfacet
  facet normal 1 0 0
    outer loop
      vertex 2 89.8242 15
      vertex 2 86.1 11
      vertex 2 89.8242 11
    endloop
  endfacet
  facet normal 1 0 0
    outer loop
      vertex 2 86.1 11
      vertex 2 21 11
      vertex 2 86.1 4
    endloop
  endfacet
  facet normal 1 -0 0
    outer loop
      vertex 2 17.3678 15
      vertex 2 86.1 11
      vertex 2 89.8242 15
    endloop
  endfacet
  facet normal 1 0 0
    outer loop
      vertex 2 86.1 11
      vertex 2 17.3678 15
      vertex 2 21 11
    endloop
  endfacet
  facet normal 1 0 0
    outer loop
      vertex 2 21 11
      vertex 2 17.3678 15
      vertex 2 17.3678 11
    endloop
  endfacet
  facet normal 1 -0 0
    outer loop
      vertex 2 86.1 4
      vertex 2 89.8242 0
      vertex 2 89.8242 4
    endloop
  endfacet
  facet normal 1 0 0
    outer loop
      vertex 2 21 4
      vertex 2 86.1 4
      vertex 2 21 11
    endloop
  endfacet
  facet normal 1 0 0
    outer loop
      vertex 2 17.3678 0
      vertex 2 86.1 4
      vertex 2 21 4
    endloop
  endfacet
  facet normal 1 0 0
    outer loop
      vertex 2 17.3678 0
      vertex 2 21 4
      vertex 2 17.3678 4
    endloop
  endfacet
  facet normal 1 0 0
    outer loop
      vertex 2 86.1 4
      vertex 2 17.3678 0
      vertex 2 89.8242 0
    endloop
  endfacet
  facet normal 0 0 -1
    outer loop
      vertex 1.82925 17.4041 11
      vertex 2 21 11
      vertex 2 17.3678 11
    endloop
  endfacet
  facet normal 0 0 -1
    outer loop
      vertex -1.82925 17.4041 11
      vertex 2 21 11
      vertex 1.82925 17.4041 11
    endloop
  endfacet
  facet normal 0 0 -1
    outer loop
      vertex -2 21 11
      vertex -1.82925 17.4041 11
      vertex -2 17.3678 11
    endloop
  endfacet
  facet normal 0 0 -1
    outer loop
      vertex -1.82925 17.4041 11
      vertex -2 21 11
      vertex 2 21 11
    endloop
  endfacet
  facet normal 0 -1 0
    outer loop
      vertex -2 21 4
      vertex 2 21 11
      vertex -2 21 11
    endloop
  endfacet
  facet normal 0 -1 -0
    outer loop
      vertex 2 21 11
      vertex -2 21 4
      vertex 2 21 4
    endloop
  endfacet
  facet normal 0 0 1
    outer loop
      vertex 2 21 4
      vertex 1.82925 17.4041 4
      vertex 2 17.3678 4
    endloop
  endfacet
  facet normal 0 0 1
    outer loop
      vertex 2 21 4
      vertex -1.82925 17.4041 4
      vertex 1.82925 17.4041 4
    endloop
  endfacet
  facet normal -0 0 1
    outer loop
      vertex -2 21 4
      vertex -1.82925 17.4041 4
      vertex 2 21 4
    endloop
  endfacet
  facet normal 0 0 1
    outer loop
      vertex -1.82925 17.4041 4
      vertex -2 21 4
      vertex -2 17.3678 4
    endloop
  endfacet
  facet normal 0 0 -1
    outer loop
      vertex 2 86.1 11
      vertex 1.25434 89.6657 11
      vertex 2 89.8242 11
    endloop
  endfacet
  facet normal 0 0 -1
    outer loop
      vertex 2 86.1 11
      vertex -1.25434 89.6657 11
      vertex 1.25434 89.6657 11
    endloop
  endfacet
  facet normal 0 0 -1
    outer loop
      vertex -2 86.1 11
      vertex -1.25434 89.6657 11
      vertex 2 86.1 11
    endloop
  endfacet
  facet normal -0 0 -1
    outer loop
      vertex -1.25434 89.6657 11
      vertex -2 86.1 11
      vertex -2 89.8242 11
    endloop
  endfacet
  facet normal -0 0 1
    outer loop
      vertex 1.25434 89.6657 4
      vertex 2 86.1 4
      vertex 2 89.8242 4
    endloop
  endfacet
  facet normal -0 0 1
    outer loop
      vertex -1.25434 89.6657 4
      vertex 2 86.1 4
      vertex 1.25434 89.6657 4
    endloop
  endfacet
  facet normal 0 0 1
    outer loop
      vertex -2 86.1 4
      vertex -1.25434 89.6657 4
      vertex -2 89.8242 4
    endloop
  endfacet
  facet normal 0 0 1
    outer loop
      vertex -1.25434 89.6657 4
      vertex -2 86.1 4
      vertex 2 86.1 4
    endloop
  endfacet
  facet normal 0 1 -0
    outer loop
      vertex 2 86.1 4
      vertex -2 86.1 11
      vertex 2 86.1 11
    endloop
  endfacet
  facet normal 0 1 0
    outer loop
      vertex -2 86.1 11
      vertex 2 86.1 4
      vertex -2 86.1 4
    endloop
  endfacet
endsolid OpenSCAD_Model
